<?xml version="1.0" standalone="no"?>
<!DOCTYPE svg PUBLIC "-//W3C//DTD SVG 20010904//EN"
 "http://www.w3.org/TR/2001/REC-SVG-20010904/DTD/svg10.dtd">
<svg version="1.0" xmlns="http://www.w3.org/2000/svg"
 width="512.000000pt" height="512.000000pt" viewBox="0 0 512.000000 512.000000"
 preserveAspectRatio="xMidYMid meet">
<metadata>
Created by potrace 1.16, written by Peter Selinger 2001-2019
</metadata>
<g transform="translate(0.000000,512.000000) scale(0.100000,-0.100000)"
fill="#000000" stroke="none">
<path d="M0 5039 l0 -82 89 -88 c49 -49 90 -89 92 -89 2 0 3 76 1 170 l-3 170
-89 0 -90 0 0 -81z"/>
<path d="M200 4958 l0 -162 28 -22 c21 -17 24 -25 15 -35 -9 -9 4 -25 58 -72
38 -34 69 -65 69 -69 0 -4 18 -12 39 -18 32 -8 41 -16 44 -38 3 -19 4 -16 6
14 1 34 -3 43 -24 54 -40 21 -65 71 -65 126 0 48 -2 51 -70 114 l-70 66 0 102
c0 84 -3 102 -15 102 -13 0 -15 -25 -15 -162z"/>
<path d="M250 5017 l0 -103 41 -39 42 -40 -32 47 c-29 44 -31 52 -31 142 0 57
-4 96 -10 96 -6 0 -10 -41 -10 -103z"/>
<path d="M287 5018 l6 -103 48 -62 c46 -59 49 -66 49 -121 0 -53 3 -61 35 -92
l35 -34 0 144 0 144 -66 67 c-58 59 -67 72 -71 113 -4 36 -10 46 -24 46 -17 0
-18 -8 -12 -102z"/>
<path d="M340 5100 c0 -11 7 -20 15 -20 8 0 15 9 15 20 0 11 -7 20 -15 20 -8
0 -15 -9 -15 -20z"/>
<path d="M384 5095 c-11 -22 -6 -30 62 -101 l74 -77 0 -241 0 -241 28 -41 c51
-75 124 -154 148 -160 14 -4 31 -1 40 7 12 10 18 9 34 -7 19 -19 19 -19 -39
-19 l-59 0 -70 73 c-39 39 -73 72 -77 72 -18 0 36 -61 175 -197 139 -137 159
-153 190 -153 l34 0 -31 33 c-17 17 -36 43 -43 57 -7 13 -24 33 -37 43 -32 25
-31 51 2 43 23 -6 25 -4 25 26 0 26 -14 46 -79 113 l-80 81 6 357 c6 326 5
357 -10 357 -14 0 -17 -19 -20 -152 l-3 -153 -2 153 -2 152 -25 0 -25 0 0
-144 c0 -129 2 -149 21 -180 11 -19 19 -43 17 -53 -2 -12 -13 3 -31 41 -25 55
-27 67 -27 197 l0 139 -92 0 c-89 0 -94 -1 -104 -25z m136 -66 c7 -11 9 -24 5
-27 -7 -7 -35 25 -35 40 0 16 19 8 30 -13z m60 -372 c0 -2 -12 -14 -26 -28
l-27 -24 18 28 c14 22 35 36 35 24z m55 -42 c0 -23 -4 -30 -20 -30 -21 0 -31
25 -21 51 11 28 41 12 41 -21z m4 -189 c9 -11 10 -20 1 -35 -12 -23 -12 -23
-34 -15 -19 7 -21 50 -3 57 20 9 24 8 36 -7z m81 -134 c0 -14 -11 -21 -26 -15
-21 8 -17 23 6 23 11 0 20 -4 20 -8z"/>
<path d="M720 5061 c0 -50 3 -59 20 -64 20 -5 28 -27 10 -27 -5 0 -10 5 -10
10 0 6 -4 10 -9 10 -5 0 -10 -118 -11 -281 l-1 -280 65 -67 66 -67 0 32 c0 17
-7 38 -15 47 -11 11 -14 34 -13 88 2 70 2 70 5 16 5 -77 23 -75 23 2 0 52 -2
60 -19 60 -10 0 -24 7 -31 15 -16 19 -4 66 18 72 15 4 17 24 20 181 2 175 3
177 28 200 23 20 35 22 137 22 l113 0 44 45 44 44 -182 0 c-162 -1 -218 -8
-164 -22 10 -3 6 -5 -10 -6 -19 -1 -28 4 -28 14 0 11 -12 15 -50 15 l-50 0 0
-59z"/>
<path d="M1263 5088 c-53 -57 -42 -82 100 -230 133 -139 166 -158 168 -95 l1
32 11 -30 c7 -16 67 -86 133 -155 l121 -125 28 34 c25 29 28 40 26 94 -3 70
-9 83 -58 138 -65 72 -73 98 -73 241 0 107 -2 128 -15 128 -12 0 -15 -17 -15
-95 0 -52 -5 -106 -12 -121 -11 -24 -10 -28 15 -46 15 -11 27 -27 27 -37 0 -9
5 -22 12 -29 9 -9 8 -12 -5 -12 -10 0 -17 8 -17 18 0 25 -41 62 -68 62 -18 0
-22 -6 -22 -30 0 -27 3 -30 33 -30 28 -1 30 -2 13 -11 -17 -10 -13 -17 44 -74
50 -50 61 -67 55 -84 -11 -35 -33 -24 -102 49 -101 108 -113 127 -113 182 0
45 -2 48 -26 48 -26 0 -26 0 -22 -75 2 -47 -1 -74 -7 -72 -5 2 -11 30 -13 63
-2 32 -7 63 -13 69 -17 17 -9 25 31 31 l40 7 0 93 0 94 -123 0 -123 0 -31 -32z
m133 -156 c-4 -3 -12 0 -19 7 -9 9 -9 14 3 21 11 7 16 5 18 -6 2 -9 1 -18 -2
-22z m420 -333 c8 -14 -31 -53 -45 -45 -15 10 -14 22 5 40 18 19 30 20 40 5z"/>
<path d="M1550 5087 c0 -19 3 -68 6 -110 6 -63 9 -75 20 -66 10 8 14 39 14
110 0 92 -1 99 -20 99 -16 0 -20 -7 -20 -33z"/>
<path d="M1600 5025 c0 -92 1 -95 23 -95 46 1 57 21 57 109 l0 81 -40 0 -40 0
0 -95z"/>
<path d="M1730 4995 c0 -116 11 -175 32 -175 4 0 8 -6 8 -13 0 -8 10 -22 21
-33 12 -10 35 -37 50 -58 27 -36 29 -46 29 -127 0 -79 -2 -88 -20 -94 -11 -3
-20 -10 -20 -15 0 -5 9 -14 20 -20 19 -10 20 -21 20 -245 l0 -233 -45 -40 -45
-40 0 -116 c0 -71 4 -116 10 -116 6 0 10 41 10 103 0 56 4 107 8 112 4 6 29
27 55 49 l48 38 -3 388 -3 388 -45 50 c-29 32 -51 48 -62 45 -29 -7 -38 31
-38 156 0 101 -2 121 -15 121 -13 0 -15 -21 -15 -125z"/>
<path d="M1772 4993 c3 -124 4 -128 26 -131 22 -3 22 -3 22 127 l0 131 -25 0
-26 0 3 -127z"/>
<path d="M1830 4994 c0 -135 4 -150 53 -194 l32 -28 6 -399 5 -398 -33 -35
-33 -36 1 -129 c2 -201 -4 -197 114 -85 55 52 151 144 213 204 109 107 112
112 112 154 0 52 -10 73 -65 132 l-42 46 -6 153 c-4 85 -7 286 -7 448 0 254
-2 293 -15 293 -13 0 -15 -45 -15 -345 0 -306 2 -349 17 -371 14 -21 14 -31 5
-58 -8 -20 -12 -98 -12 -206 l0 -173 -107 -111 c-60 -61 -109 -113 -111 -115
-1 -3 -7 0 -13 6 -7 7 25 43 101 115 l110 105 0 179 c0 172 -1 180 -21 192
-18 11 -20 20 -15 51 5 30 2 42 -14 56 -21 19 -28 41 -10 30 7 -4 10 69 10
210 0 202 -1 219 -20 242 -16 21 -20 41 -20 109 l0 84 -30 0 c-29 0 -30 -2
-30 -43 0 -47 -11 -63 -67 -91 -20 -10 -35 -27 -39 -43 -6 -22 -1 -31 27 -56
19 -16 49 -43 67 -59 l32 -30 0 -188 0 -189 50 -65 50 -65 0 -151 c0 -93 -4
-150 -10 -150 -6 0 -10 58 -10 153 l0 152 -45 55 -45 55 0 190 0 189 -65 61
c-60 55 -65 63 -65 101 0 45 22 74 57 74 29 0 53 31 53 68 l0 32 -75 0 -75 0
0 -126z m448 -928 c4 -30 -10 -46 -40 -46 -23 0 -35 45 -17 66 20 25 53 13 57
-20z"/>
<path d="M2230 4060 c0 -11 7 -20 15 -20 8 0 15 9 15 20 0 11 -7 20 -15 20 -8
0 -15 -9 -15 -20z"/>
<path d="M2060 5044 c0 -73 1 -77 34 -110 18 -18 30 -35 26 -36 -5 -2 -11
-103 -15 -224 -7 -220 -7 -222 14 -233 l21 -12 0 346 0 345 -40 0 -40 0 0 -76z"/>
<path d="M2200 4685 l0 -434 45 -56 c52 -64 65 -91 65 -143 1 -31 2 -34 11
-19 6 11 8 51 5 100 -2 45 -5 91 -6 102 0 11 -16 36 -35 55 l-35 36 0 397 -1
397 -25 0 -24 0 0 -435z"/>
<path d="M2260 5015 c0 -83 3 -105 14 -105 7 0 19 -7 26 -15 10 -12 7 -19 -14
-38 l-26 -24 0 -247 0 -247 45 -43 45 -44 0 -97 c0 -87 2 -96 16 -84 43 35 58
117 27 151 -14 16 -15 23 -5 38 8 14 12 85 12 237 0 215 0 217 24 242 23 24
24 34 28 168 2 78 0 139 -4 137 -5 -3 -8 -14 -8 -25 0 -23 -28 -25 -37 -3 -4
10 1 22 10 29 10 7 17 26 17 44 l0 31 -85 0 -85 0 0 -105z"/>
<path d="M2440 5108 c0 -7 5 -20 10 -28 8 -12 10 -9 10 13 0 15 -4 27 -10 27
-5 0 -10 -6 -10 -12z"/>
<path d="M2470 4940 c2 -168 0 -181 -20 -209 -20 -30 -21 -37 -18 -376 3 -301
5 -345 18 -343 13 3 15 49 17 337 1 224 5 337 12 344 15 15 15 427 1 427 -7 0
-10 -61 -10 -180z"/>
<path d="M2510 4919 c0 -187 -2 -204 -21 -235 -25 -41 -8 -45 20 -5 20 27 21
43 21 235 0 131 -4 206 -10 206 -6 0 -10 -74 -10 -201z"/>
<path d="M2551 4908 c2 -207 1 -217 -20 -244 -20 -26 -21 -35 -21 -340 l0
-314 160 0 159 0 38 32 c21 18 40 34 43 36 3 2 4 57 2 122 l-3 119 35 39 36
39 0 181 c0 178 0 181 25 210 14 17 25 42 25 56 0 17 14 42 40 69 28 31 38 49
34 64 -3 12 -1 30 6 40 10 15 10 14 5 -10 -4 -19 -2 -26 5 -22 5 3 10 35 10
71 l0 64 -75 0 -75 0 0 -55 c0 -52 -3 -59 -45 -104 l-45 -48 -1 -94 c-1 -52
-6 -100 -12 -106 -16 -21 -45 -15 -63 12 -16 24 -16 27 2 46 10 11 26 18 36
16 16 -5 18 3 18 67 l0 72 45 44 c42 41 45 48 45 97 l0 53 -95 0 -95 0 0 -480
c0 -264 -3 -480 -7 -480 -5 0 -7 216 -5 480 l3 480 -65 0 -66 0 -3 -202 -2
-203 -3 203 c-2 195 -3 202 -22 202 -19 0 -20 -7 -20 -189 0 -124 -4 -192 -11
-196 -7 -5 -9 51 -7 183 1 105 -1 194 -5 199 -5 4 -7 -90 -6 -209z m559 137
c-7 -9 -15 -13 -17 -11 -6 6 20 36 26 30 2 -2 -2 -10 -9 -19z m-400 -895 c27
-27 25 -46 -6 -77 -19 -19 -31 -24 -52 -19 -15 4 -33 7 -40 8 -7 1 -10 9 -6
20 3 10 0 18 -6 18 -14 0 15 56 32 63 28 11 59 6 78 -13z m118 -59 c4 -27 -24
-62 -44 -54 -20 7 -18 60 4 72 24 14 36 8 40 -18z"/>
<path d="M2654 4140 c-12 -5 -25 -13 -28 -19 -10 -16 12 -51 33 -51 19 0 51
30 51 48 0 18 -33 30 -56 22z m36 -19 c0 -5 -9 -11 -20 -14 -20 -5 -26 3 -13
16 9 10 33 8 33 -2z"/>
<path d="M2794 4086 c-8 -22 3 -33 18 -18 9 9 9 15 0 24 -9 9 -13 7 -18 -6z"/>
<path d="M3143 5060 c0 -36 2 -50 4 -32 2 17 2 47 0 65 -2 17 -4 3 -4 -33z"/>
<path d="M3167 5050 c-7 -74 -9 -76 -62 -130 -30 -31 -55 -64 -55 -75 0 -15
12 -7 54 34 68 67 78 90 74 177 l-3 69 -8 -75z"/>
<path d="M3188 4848 c-2 -265 -2 -268 -8 -93 -3 99 -8 173 -12 165 -4 -8 -9
-87 -11 -175 -3 -88 -8 -173 -12 -189 l-8 -29 37 29 c34 27 36 32 30 70 -4 26
-2 44 5 48 19 12 9 446 -11 446 -4 0 -9 -123 -10 -272z"/>
<path d="M3229 4903 c-1 -275 -7 -324 -42 -361 -25 -26 -27 -34 -27 -117 l0
-89 61 59 61 60 -6 285 c-3 157 -6 306 -6 333 0 40 -3 47 -20 47 -19 0 -20 -7
-21 -217z"/>
<path d="M3282 5043 c2 -50 7 -78 16 -81 9 -3 12 17 12 77 0 66 -3 81 -15 81
-13 0 -15 -13 -13 -77z"/>
<path d="M3320 5041 c0 -58 -4 -82 -15 -91 -13 -10 -15 -50 -14 -244 0 -152 3
-223 10 -208 5 13 10 119 11 235 1 125 4 189 8 157 5 -39 7 -13 8 88 1 78 0
142 -3 142 -3 0 -5 -35 -5 -79z"/>
<path d="M3340 4976 c0 -86 -4 -147 -10 -151 -12 -7 -14 -315 -2 -315 4 0 29
22 55 48 l47 48 0 93 c0 85 -2 96 -25 123 -24 28 -25 35 -25 164 0 127 -1 134
-20 134 -19 0 -20 -7 -20 -144z"/>
<path d="M3400 4989 c0 -125 1 -132 25 -161 22 -26 25 -39 25 -111 1 -74 2
-80 15 -63 10 13 15 43 15 85 0 58 -3 68 -29 96 -28 28 -30 36 -32 118 -1 72
1 91 16 107 15 16 16 24 7 42 -11 23 -11 23 -11 -4 -1 -15 -5 -30 -11 -33 -6
-4 -7 6 -4 25 4 19 2 30 -5 30 -8 0 -11 -41 -11 -131z"/>
<path d="M3457 5100 c3 -11 -2 -31 -11 -45 -11 -17 -16 -47 -16 -103 0 -76 1
-79 35 -112 32 -31 35 -39 35 -89 0 -40 3 -52 10 -41 5 8 10 69 10 134 l0 119
65 60 c36 33 65 68 65 78 0 17 -9 19 -99 19 -94 0 -99 -1 -94 -20z"/>
<path d="M3675 5110 c4 -6 -25 -44 -65 -84 l-71 -73 3 -109 c2 -70 6 -102 11
-89 34 82 59 119 117 180 55 57 58 63 63 123 l5 62 -35 0 c-21 0 -32 -4 -28
-10z"/>
<path d="M3750 5057 l0 -64 -67 -66 c-46 -46 -63 -71 -56 -78 7 -7 32 13 81
63 l72 73 0 68 c0 53 -3 67 -15 67 -12 0 -15 -14 -15 -63z"/>
<path d="M3793 5060 c0 -36 2 -50 4 -32 2 17 2 47 0 65 -2 17 -4 3 -4 -33z"/>
<path d="M3880 5054 l0 -65 -97 -98 c-121 -121 -243 -258 -243 -272 0 -16 52
24 223 174 104 91 164 151 173 173 8 18 14 61 14 94 l0 60 -35 0 -35 0 0 -66z"/>
<path d="M3960 5038 l0 -82 -83 -80 c-45 -45 -137 -130 -205 -190 l-123 -109
1 -571 c2 -559 1 -571 -19 -591 -15 -17 -18 -30 -14 -61 4 -31 1 -43 -16 -58
-20 -18 -21 -29 -21 -201 0 -167 2 -185 20 -206 l19 -24 0 60 c-1 33 -4 107
-8 165 l-7 105 53 57 53 57 0 74 c0 51 -5 85 -16 104 -22 40 -6 81 37 90 l30
6 -2 298 c-2 272 -1 301 15 318 15 17 17 37 15 153 -3 126 -2 136 19 162 12
16 22 42 22 59 0 25 22 52 131 164 100 102 129 138 123 151 -4 9 -6 24 -5 32
1 8 4 57 7 108 5 79 3 92 -10 92 -13 0 -16 -14 -16 -82z"/>
<path d="M4000 4990 l0 -130 -79 -88 c-43 -48 -102 -109 -130 -137 -43 -41
-51 -55 -51 -86 0 -23 -7 -42 -20 -54 -18 -16 -20 -31 -20 -152 0 -123 1 -133
18 -133 43 0 71 -70 42 -105 -7 -8 -28 -15 -46 -15 l-34 0 -2 -212 c-2 -117
-3 -247 -3 -288 0 -86 -6 -100 -43 -100 -20 0 -23 -3 -14 -12 7 -7 12 -43 12
-91 l0 -78 -55 -59 -56 -58 3 -93 3 -94 49 45 c27 25 88 88 136 140 l86 96 2
135 1 136 -45 44 -44 43 0 189 0 189 140 142 140 142 0 50 c0 59 -7 72 -47 83
-27 8 -30 7 -26 -10 4 -14 0 -19 -16 -19 -12 0 -21 6 -21 15 0 8 6 15 13 15 7
0 8 3 2 8 -15 10 -12 109 3 123 6 7 12 33 12 57 0 41 5 49 83 133 l82 90 124
-3 c89 -2 126 -7 129 -15 3 -10 -27 -13 -125 -13 l-129 0 -72 -73 c-70 -70
-72 -74 -72 -121 0 -32 -6 -56 -16 -67 -24 -26 -11 -85 20 -93 12 -3 35 -15
49 -27 24 -18 27 -27 27 -81 l0 -61 -145 -147 -145 -147 0 -172 0 -172 50 -53
c48 -51 50 -55 50 -109 l0 -57 98 0 c53 0 107 3 119 6 21 6 22 8 8 34 -8 16
-29 39 -46 53 -28 22 -33 33 -37 80 -4 48 -2 56 17 66 17 10 21 21 21 60 0 42
-5 54 -38 90 -25 27 -46 41 -63 41 -29 0 -49 17 -49 41 0 23 4 25 78 33 41 5
62 3 62 -4 0 -5 -15 -10 -34 -10 -19 0 -38 -5 -42 -11 -3 -6 17 -35 46 -64 51
-52 53 -55 54 -112 l1 -58 48 -3 c41 -3 47 -1 47 17 0 24 44 78 70 86 19 6 20
16 20 176 0 162 -1 169 -20 169 -11 0 -20 7 -20 15 0 21 23 19 43 -3 15 -16
17 -46 17 -213 0 -219 -4 -235 -58 -227 -26 4 -32 1 -34 -16 -3 -19 -11 -21
-75 -24 l-73 -3 0 -45 c0 -42 2 -45 23 -39 12 4 30 9 40 11 24 7 35 -25 14
-41 -16 -11 -15 -16 5 -59 l23 -46 57 0 c31 0 60 5 63 10 4 6 -28 46 -69 89
-42 42 -76 83 -76 89 0 6 38 -28 84 -76 l85 -87 35 34 36 35 0 261 c0 143 3
276 6 295 11 59 60 152 112 213 27 32 53 72 56 89 3 17 6 104 6 194 l0 163
-40 46 c-39 45 -40 48 -40 121 l0 74 -56 0 c-63 0 -82 -8 -144 -63 -74 -64
-89 -64 -30 0 30 33 65 72 77 87 19 23 29 26 82 26 70 0 77 11 33 53 l-28 27
-167 0 -167 0 0 -130z m220 40 c0 -24 -26 -32 -45 -14 -19 19 -19 19 1 39 19
18 44 4 44 -25z m50 -320 c10 -7 -16 -10 -82 -10 l-98 0 0 -70 0 -70 68 0 c44
0 75 5 88 15 11 8 41 14 72 15 58 0 69 11 53 53 -9 23 -16 27 -51 27 -22 0
-40 5 -40 10 0 6 16 10 35 10 41 0 75 -32 75 -70 0 -38 -18 -50 -76 -50 -34 0
-56 -5 -64 -15 -9 -11 -33 -15 -91 -15 -91 0 -92 2 -87 105 l3 60 85 6 c47 3
87 6 90 7 3 1 12 -3 20 -8z m-130 -86 c0 -8 -7 -14 -15 -14 -15 0 -21 21 -9
33 10 9 24 -2 24 -19z m207 18 c7 -4 9 -12 5 -17 -10 -14 -52 -14 -52 0 0 24
23 32 47 17z m-82 -22 c14 -6 -3 -8 -50 -8 -64 1 -66 2 -25 8 25 4 47 7 50 8
3 0 14 -3 25 -8z m-245 -80 c23 -12 46 -78 32 -92 -12 -12 -43 28 -35 48 2 7
-5 19 -16 26 -37 23 -20 39 19 18z m119 -157 c24 -29 20 -58 -10 -85 -26 -22
-24 -31 5 -24 14 3 28 2 31 -4 4 -6 -5 -10 -20 -10 -20 0 -26 -4 -23 -17 3
-14 14 -18 51 -19 38 -1 53 -6 77 -29 25 -24 30 -36 30 -77 0 -30 -4 -47 -10
-43 -5 3 -10 21 -10 40 0 18 -3 41 -6 50 -10 25 -59 46 -93 39 -40 -8 -61 9
-61 50 0 24 -7 35 -30 48 -23 13 -30 24 -30 47 0 61 62 82 99 34z m299 -30
c-5 -25 -28 -28 -28 -4 0 12 6 21 16 21 9 0 14 -7 12 -17z m-278 -488 c10 -12
9 -16 -5 -21 -19 -8 -40 9 -31 25 10 15 21 14 36 -4z"/>
<path d="M4185 5040 c-3 -5 -1 -10 4 -10 6 0 11 5 11 10 0 6 -2 10 -4 10 -3 0
-8 -4 -11 -10z"/>
<path d="M4460 5080 l0 -40 54 0 c56 0 95 20 116 61 9 16 7 19 -8 19 -11 0
-22 -9 -25 -20 -3 -11 -12 -20 -21 -20 -9 0 -16 8 -16 20 0 17 -7 20 -50 20
l-50 0 0 -40z"/>
<path d="M4690 5086 c-6 -19 -28 -47 -48 -63 -31 -23 -49 -28 -109 -32 l-73
-3 0 -65 c0 -61 3 -68 35 -104 l35 -39 0 -211 0 -211 -85 -88 c-71 -74 -85
-94 -86 -122 0 -18 -3 -27 -6 -20 -6 16 -23 6 -23 -14 0 -11 6 -13 19 -9 36
11 41 -23 41 -254 0 -141 4 -221 10 -221 6 0 10 71 10 194 l0 195 25 19 c17
13 25 30 25 50 0 23 17 47 80 113 l80 84 0 233 0 233 103 100 c56 55 121 112
145 126 40 24 42 27 42 74 0 27 -4 49 -10 49 -5 0 -10 -6 -11 -12 0 -7 -5 -3
-11 10 -10 20 -18 22 -94 22 l-82 0 -12 -34z m180 -55 c-10 -20 -30 -29 -30
-14 0 10 33 44 37 39 3 -2 0 -14 -7 -25z m-282 -163 c-6 -18 -28 -21 -28 -4 0
9 7 16 16 16 9 0 14 -5 12 -12z"/>
<path d="M4924 5098 c3 -13 6 -34 6 -48 l0 -25 26 26 c25 26 26 27 8 48 -25
29 -48 28 -40 -1z"/>
<path d="M4980 5110 c0 -5 5 -10 10 -10 6 0 10 5 10 10 0 6 -4 10 -10 10 -5 0
-10 -4 -10 -10z"/>
<path d="M5050 5041 c0 -63 -4 -83 -20 -104 -25 -32 -25 -41 -1 -28 23 13 91
103 91 121 0 10 -3 10 -15 0 -9 -7 -19 -10 -23 -6 -4 4 3 16 16 26 12 10 22
29 22 44 0 28 -9 33 -28 14 -9 -9 -12 -9 -12 0 0 7 -7 12 -15 12 -12 0 -15
-15 -15 -79z"/>
<path d="M4944 5015 c-26 -30 -53 -55 -60 -57 -7 -2 -65 -54 -128 -116 l-116
-114 0 -225 0 -225 -79 -87 c-83 -91 -106 -141 -67 -141 14 0 52 30 103 83
l82 82 3 228 3 228 102 97 c56 53 119 112 140 129 33 29 35 33 16 33 -21 0
-40 16 -30 26 2 2 16 0 31 -5 28 -11 30 -9 27 39 -2 20 0 22 8 10 15 -22 27
-2 13 20 -15 24 -15 33 -2 25 6 -3 10 1 10 9 0 24 -5 21 -56 -39z"/>
<path d="M910 4964 c-36 -16 -40 -34 -40 -201 0 -134 1 -143 19 -143 10 0 22
-7 25 -16 7 -17 -10 -54 -24 -54 -6 0 -10 -61 -10 -151 l0 -151 98 -102 c53
-55 125 -131 158 -169 59 -66 61 -67 92 -56 28 9 32 16 33 47 l2 37 6 -36 c4
-27 18 -46 51 -74 l45 -37 6 23 c4 13 7 -22 8 -77 1 -77 5 -105 16 -114 13
-11 15 0 15 91 0 136 -3 147 -41 141 -38 -6 -56 10 -71 62 -9 30 -39 68 -115
146 -97 98 -117 130 -93 145 12 8 13 155 1 174 -16 25 -24 -8 -22 -93 1 -62
-1 -77 -10 -63 -11 19 -16 631 -4 666 5 16 0 18 -56 17 -34 0 -74 -6 -89 -12z
m108 -641 c-5 -26 -38 -29 -38 -4 0 15 6 21 21 21 14 0 19 -5 17 -17z m6 -56
c8 -14 8 -20 -4 -27 -22 -14 -35 -7 -38 24 -3 22 0 27 14 24 9 -1 22 -11 28
-21z m96 -101 c0 -8 -4 -17 -9 -21 -12 -7 -24 12 -16 25 9 15 25 12 25 -4z
m130 -141 c0 -8 -7 -15 -15 -15 -8 0 -15 7 -15 15 0 8 7 15 15 15 8 0 15 -7
15 -15z"/>
<path d="M990 4260 c0 -5 7 -10 15 -10 8 0 15 5 15 10 0 6 -7 10 -15 10 -8 0
-15 -4 -15 -10z"/>
<path d="M1131 4954 c-20 -26 -30 -102 -15 -117 8 -7 6 -325 -3 -469 -5 -95
-5 -97 21 -121 14 -13 26 -33 26 -44 0 -10 14 -32 31 -49 17 -16 50 -54 73
-85 39 -51 44 -55 61 -43 26 19 59 17 77 -3 12 -14 16 -49 17 -168 1 -82 4
-151 7 -154 3 -3 24 13 46 37 l40 43 -6 119 c-4 74 -12 130 -21 147 -17 32
-20 87 -5 78 13 -8 13 46 0 81 -6 15 -29 49 -51 75 -40 48 -42 49 -97 49 -56
0 -56 0 -114 63 -32 34 -56 67 -54 72 1 6 15 10 29 10 22 -1 27 4 27 25 0 14
-7 36 -16 48 -11 16 -14 32 -9 50 10 42 25 149 31 233 6 75 5 77 -26 113 -18
20 -36 36 -40 36 -5 0 -18 -12 -29 -26z m57 -575 c-2 -6 -8 -10 -13 -10 -5 0
-11 4 -13 10 -2 6 4 11 13 11 9 0 15 -5 13 -11z m152 -237 c0 -5 14 -7 30 -4
23 3 30 0 30 -12 0 -12 -10 -16 -44 -16 -45 0 -63 11 -51 30 7 12 35 13 35 2z"/>
<path d="M5075 4931 c-22 -24 -48 -41 -61 -41 -14 0 -31 -12 -44 -30 -14 -19
-30 -30 -46 -30 -28 0 -194 -149 -206 -184 -3 -12 -6 -114 -7 -228 l-1 -207
-95 -88 c-88 -82 -95 -90 -89 -119 7 -37 -15 -64 -51 -64 -20 0 -24 -6 -30
-52 -4 -28 -6 -103 -4 -167 1 -64 2 -155 1 -203 -2 -86 -2 -87 -42 -133 -36
-42 -40 -51 -40 -103 0 -41 -6 -64 -20 -82 -26 -33 -25 -40 5 -40 16 0 25 -6
25 -15 0 -25 19 -17 55 23 l35 37 0 108 0 109 59 64 58 64 5 140 5 140 109
116 109 117 3 285 4 285 41 50 c90 105 104 117 145 117 31 0 45 7 81 44 38 39
42 47 39 85 l-3 42 -40 -40z m-165 -152 c-6 -11 -15 -17 -21 -14 -5 4 -5 14 1
26 6 11 15 17 21 14 5 -4 5 -14 -1 -26z"/>
<path d="M1240 4828 c0 -42 -4 -80 -10 -83 -16 -10 -13 -115 4 -115 16 0 28
-60 15 -74 -20 -21 -10 -96 17 -132 25 -32 30 -34 87 -34 l61 0 103 -103 103
-103 0 -65 c1 -48 3 -60 11 -46 12 21 52 22 69 3 17 -22 8 -60 -17 -71 -22 -9
-23 -15 -24 -150 0 -111 -3 -134 -11 -110 -14 39 -13 38 -37 25 -20 -10 -21
-19 -21 -136 l0 -125 28 3 c26 3 27 5 30 77 3 65 0 77 -19 98 -24 24 -36 63
-20 63 5 0 18 -16 30 -36 17 -28 21 -52 21 -120 0 -64 3 -85 13 -82 15 6 28
187 14 205 -12 16 -1 46 15 41 8 -3 11 -38 9 -121 -2 -102 0 -117 14 -117 22
0 31 29 16 52 -13 21 -7 73 10 83 5 4 9 70 9 149 0 126 2 145 18 159 10 10 26
17 35 17 8 0 23 7 31 16 13 13 16 46 16 209 0 119 -4 204 -11 222 -6 16 -13
22 -16 16 -11 -30 -45 -6 -163 112 -120 121 -126 125 -167 125 -40 0 -46 4
-152 113 l-111 112 0 -77z m435 -473 c0 -11 -8 -21 -17 -23 -10 -2 -18 2 -18
8 0 6 5 8 10 5 6 -3 10 -2 10 4 0 14 -32 19 -57 7 -27 -11 -29 -32 -6 -58 16
-17 16 -20 -1 -36 -16 -16 -17 -16 -10 1 4 11 0 25 -11 37 -34 38 5 82 70 77
23 -1 30 -7 30 -22z m150 -315 c0 -8 -8 -16 -17 -18 -13 -2 -18 3 -18 18 0 15
5 20 18 18 9 -2 17 -10 17 -18z"/>
<path d="M1577 4894 c-11 -12 -8 -69 5 -82 22 -22 29 -12 26 35 -3 44 -15 62
-31 47z"/>
<path d="M2266 4885 c-3 -9 0 -15 9 -15 16 0 20 16 6 24 -5 3 -11 -1 -15 -9z"/>
<path d="M3137 4893 c-11 -11 -8 -271 3 -278 6 -4 10 45 10 139 0 80 -1 146
-3 146 -2 0 -7 -3 -10 -7z"/>
<path d="M0 4846 c0 -43 5 -53 77 -163 57 -88 83 -104 83 -53 0 17 5 39 12 49
14 22 2 38 -99 135 l-73 70 0 -38z"/>
<path d="M3062 4817 l-52 -53 0 -235 c0 -169 3 -238 12 -247 16 -16 -4 -37
-26 -29 -18 7 -21 33 -6 42 6 3 10 18 10 33 l0 26 -22 -22 c-20 -20 -23 -35
-26 -115 l-3 -92 51 53 50 53 0 85 0 84 41 45 c41 45 41 45 35 102 -4 32 -6
118 -6 191 1 72 0 132 -2 132 -2 0 -27 -24 -56 -53z"/>
<path d="M5086 4785 c-24 -31 -32 -35 -73 -35 -42 0 -49 -4 -87 -47 -81 -91
-76 -65 -76 -385 l0 -288 -68 -72 c-163 -175 -152 -158 -152 -243 l0 -75 39
28 c30 21 37 31 30 44 -15 28 -10 38 24 53 34 14 134 113 156 153 9 16 12 85
11 240 -1 119 -1 224 -1 233 1 9 13 28 27 43 25 24 33 26 115 26 l89 0 0 180
c0 99 -2 180 -4 180 -2 0 -16 -16 -30 -35z m-77 -154 c13 -24 -8 -55 -35 -49
-23 4 -30 33 -14 53 17 20 37 19 49 -4z m-144 -672 c-4 -5 -13 -9 -22 -9 -13
0 -13 3 -3 15 13 15 35 11 25 -6z"/>
<path d="M4975 4619 c-10 -15 3 -25 16 -12 7 7 7 13 1 17 -6 3 -14 1 -17 -5z"/>
<path d="M1070 4650 c0 -100 3 -120 15 -120 13 0 15 20 15 120 0 100 -2 120
-15 120 -12 0 -15 -20 -15 -120z"/>
<path d="M2830 4744 c0 -9 7 -14 17 -12 25 5 28 28 4 28 -12 0 -21 -6 -21 -16z"/>
<path d="M0 4677 l0 -69 137 -144 c110 -116 142 -144 164 -144 22 0 66 -41
240 -221 l214 -221 57 5 c50 4 59 2 70 -15 8 -12 20 -19 27 -17 8 3 -23 46
-82 114 -95 109 -140 155 -289 298 -65 61 -78 79 -78 105 l0 32 -100 0 c-96 0
-101 1 -132 29 -18 16 -30 33 -25 37 4 4 20 -5 35 -19 27 -26 33 -27 131 -27
90 0 102 2 97 16 -3 9 -6 18 -6 20 0 2 -8 4 -18 4 -20 0 -75 54 -85 83 -5 12
-17 17 -44 17 -31 0 -45 8 -84 46 l-47 46 -7 -30 c-13 -60 -31 -60 -85 -4 -27
28 -58 68 -69 89 l-20 38 -1 -68z m541 -473 c7 -9 18 -26 24 -38 6 -11 19 -20
28 -18 9 1 21 -8 28 -20 6 -13 30 -43 53 -67 26 -27 33 -39 19 -32 -12 6 -31
24 -42 40 -12 16 -50 53 -86 81 -35 29 -62 57 -59 61 8 13 20 11 35 -7z m254
-251 c43 -40 51 -51 30 -40 -17 8 -39 25 -50 37 -11 12 -30 26 -43 31 -13 5
-20 13 -17 19 10 16 17 12 80 -47z"/>
<path d="M191 4683 c-1 -19 89 -103 110 -103 16 0 18 4 10 18 -18 34 -80 85
-95 79 -8 -3 -17 -1 -20 6 -3 9 -5 9 -5 0z"/>
<path d="M3466 4593 c-6 -14 -5 -15 5 -6 7 7 10 15 7 18 -3 3 -9 -2 -12 -12z"/>
<path d="M830 4590 c0 -5 5 -10 10 -10 6 0 10 5 10 10 0 6 -4 10 -10 10 -5 0
-10 -4 -10 -10z"/>
<path d="M875 4589 c-4 -6 -5 -13 -2 -16 7 -7 27 6 27 18 0 12 -17 12 -25 -2z"/>
<path d="M0 4507 l0 -64 64 -61 64 -62 61 0 61 0 -122 125 c-67 69 -123 125
-125 125 -2 0 -3 -29 -3 -63z m133 -135 c-1 -34 -2 -35 -17 -23 -16 13 -9 54
7 48 7 -2 11 -13 10 -25z"/>
<path d="M3376 4511 c-46 -46 -48 -51 -40 -84 l9 -36 43 37 c41 35 43 40 40
85 l-3 48 -49 -50z"/>
<path d="M3408 4404 c-54 -57 -68 -78 -68 -103 0 -37 8 -38 46 -9 55 43 97
114 92 156 -3 26 -6 24 -70 -44z"/>
<path d="M3101 4404 c-16 -20 -21 -41 -21 -88 0 -59 0 -60 19 -41 13 14 20 41
24 88 4 37 4 67 2 67 -2 0 -13 -12 -24 -26z"/>
<path d="M3247 4382 c-46 -47 -58 -74 -36 -88 19 -11 76 57 82 99 3 20 5 37 3
37 -1 0 -23 -22 -49 -48z"/>
<path d="M4952 4390 c-21 -20 -22 -28 -22 -222 0 -231 -12 -220 113 -99 l77
76 0 132 0 133 -73 0 c-60 0 -77 -4 -95 -20z"/>
<path d="M2120 4376 c0 -8 5 -18 10 -21 6 -3 10 0 10 7 0 10 3 9 11 -2 8 -12
10 -12 7 5 -4 23 -38 34 -38 11z"/>
<path d="M0 4359 c0 -16 13 -38 36 -60 l35 -34 129 -5 129 -5 201 -207 202
-208 47 0 c43 0 52 -4 88 -42 36 -40 160 -156 197 -186 34 -27 96 -41 96 -22
0 6 -7 10 -15 10 -9 0 -19 10 -24 23 -5 12 -49 61 -98 109 -76 74 -92 85 -115
81 -20 -4 -30 0 -40 16 -8 14 -23 21 -44 21 -78 0 -85 5 -295 226 l-203 214
-91 0 c-113 0 -149 10 -197 57 -37 36 -38 37 -38 12z"/>
<path d="M3435 4309 c-22 -22 -52 -47 -66 -54 -25 -14 -26 -18 -34 -147 -10
-159 -10 -195 0 -230 5 -20 2 -31 -14 -47 -17 -17 -20 -29 -15 -55 8 -45 -4
-64 -70 -116 l-56 -42 0 -72 c0 -43 5 -77 12 -84 7 -7 36 -12 66 -12 49 0 58
-3 87 -34 l32 -34 6 -388 5 -387 66 -66 66 -66 0 176 0 175 -30 40 -29 39 -1
188 c0 150 -3 187 -13 187 -20 0 -47 33 -47 58 0 13 12 29 28 39 65 42 61 12
62 516 0 251 -4 457 -8 457 -4 0 -26 -18 -47 -41z"/>
<path d="M3246 4271 c-40 -41 -44 -61 -9 -43 29 16 55 49 51 67 -2 12 -12 6
-42 -24z"/>
<path d="M0 4253 c1 -4 18 -27 39 -50 l39 -43 106 0 107 0 54 -51 54 -51 -39
-47 c-26 -30 -40 -57 -40 -75 0 -34 -23 -31 -28 4 -3 16 9 35 39 66 l43 44
-44 45 -44 45 -107 0 -107 0 -36 40 -36 40 0 -41 c0 -33 3 -40 15 -35 9 3 18
-1 22 -10 3 -8 18 -21 33 -29 16 -8 50 -33 75 -55 47 -41 48 -41 69 -22 21 19
21 19 49 -14 30 -36 23 -48 -8 -14 -16 18 -19 18 -42 3 -23 -16 -25 -15 -69
28 -40 39 -46 42 -55 27 -14 -25 -28 -22 -61 9 l-28 27 0 -42 0 -42 57 0 57 0
188 -187 188 -187 0 122 c0 109 2 124 20 142 11 11 27 20 35 20 8 0 15 3 15 6
0 9 -97 119 -189 216 l-74 78 -115 0 c-99 0 -119 3 -148 21 -19 11 -34 17 -34
12z"/>
<path d="M3083 4208 c-27 -28 -33 -42 -33 -78 l0 -45 36 36 c31 31 35 41 32
78 l-3 42 -32 -33z"/>
<path d="M3243 4195 l-43 -37 0 -84 c0 -46 4 -84 8 -84 4 0 25 17 45 38 l38
39 -3 82 -3 82 -42 -36z"/>
<path d="M877 4168 c4 -36 14 -53 63 -100 39 -39 66 -58 83 -58 13 0 30 -7 37
-15 10 -13 9 -15 -11 -15 -22 -1 -20 -4 21 -41 48 -42 118 -84 127 -75 3 3 -1
16 -10 28 -22 33 -297 318 -307 318 -4 0 -6 -19 -3 -42z"/>
<path d="M1502 4147 c-9 -34 -8 -54 3 -92 10 -31 15 -92 15 -170 l0 -121 -45
-44 c-44 -43 -58 -80 -31 -80 7 0 34 24 58 54 l45 55 6 188 c6 180 5 189 -15
218 l-21 30 26 -24 27 -24 0 -167 c0 -92 -3 -181 -6 -198 -3 -16 -28 -56 -55
-88 l-48 -59 49 -50 c27 -27 51 -47 54 -45 2 3 7 30 11 61 6 51 5 56 -17 66
l-23 12 23 0 c20 1 22 6 22 50 0 28 5 53 10 56 6 4 10 75 10 181 l0 176 -29
29 c-41 40 -57 37 -69 -14z"/>
<path d="M2983 4096 c-25 -27 -33 -46 -33 -74 l0 -37 36 36 c30 31 35 41 32
74 l-3 39 -32 -38z"/>
<path d="M3098 4073 c-27 -27 -48 -58 -48 -70 0 -24 -116 -156 -278 -317
l-109 -108 -2 -325 c-2 -365 0 -355 -75 -417 l-45 -37 -4 -127 -3 -127 -2 130
-2 130 52 47 53 46 5 329 c3 180 5 329 5 330 0 1 -38 -34 -85 -77 l-85 -79
-291 -1 -292 0 -4 -55 c-3 -34 -12 -62 -23 -75 -18 -20 -18 -20 46 -20 l65 0
59 -60 c32 -32 62 -57 67 -54 4 3 8 -3 8 -13 0 -18 70 -91 154 -162 l40 -34
10 24 c8 18 12 -44 14 -245 1 -148 -1 -273 -5 -277 -5 -4 -10 100 -11 232 l-4
241 -76 71 c-42 40 -115 108 -162 153 -106 100 -121 106 -164 65 l-32 -31
-137 0 -137 0 -6 25 c-3 14 -9 25 -13 25 -4 0 -27 -16 -50 -36 -32 -28 -39
-39 -29 -46 7 -4 127 -8 265 -7 l253 2 124 -119 124 -119 1 -223 1 -222 -26
-40 c-15 -22 -29 -39 -31 -36 -2 2 7 21 22 41 25 38 25 39 25 251 l0 214 -122
120 -123 120 -319 -1 c-258 0 -324 -3 -347 -15 -17 -8 -57 -14 -99 -14 -68 0
-70 -1 -70 -25 0 -24 2 -25 70 -25 40 0 70 -4 70 -10 0 -6 -30 -10 -70 -10
-68 0 -70 -1 -70 -25 0 -25 1 -25 90 -25 53 0 90 -4 90 -10 0 -6 -37 -10 -90
-10 -73 0 -90 -3 -90 -15 0 -12 16 -15 84 -15 47 0 88 -4 91 -10 4 -6 -27 -10
-84 -10 l-91 0 0 -116 0 -115 52 -55 c40 -43 56 -53 72 -48 32 10 32 10 -8 54
-36 40 -37 43 -34 107 2 42 8 68 16 71 9 3 11 -12 6 -68 -7 -70 -7 -71 25
-102 17 -17 31 -39 31 -49 0 -10 5 -21 10 -24 15 -9 12 -25 -5 -25 -8 0 -15 4
-15 10 0 5 -19 9 -43 7 -34 -2 -42 1 -42 15 0 10 -19 37 -42 60 l-42 43 -3
115 -3 115 -57 3 c-74 4 -76 22 -3 22 42 0 55 3 55 15 0 12 -16 15 -80 15 -44
0 -80 -2 -80 -4 0 -3 9 -21 21 -40 16 -28 20 -50 19 -99 -2 -34 -2 -74 -1 -89
1 -34 79 -127 182 -217 l80 -71 393 0 393 0 23 25 c38 41 88 28 105 -26 5 -15
1 -28 -14 -42 -19 -19 -25 -20 -113 -11 -60 7 -103 7 -122 1 -16 -6 -71 -7
-127 -3 -104 6 -115 2 -105 -37 5 -22 6 -22 158 -15 341 17 349 17 394 49 23
15 54 42 68 60 l26 31 -3 397 c-2 218 -7 410 -11 426 -16 63 71 90 103 33 14
-25 14 -29 -5 -55 -17 -22 -22 -50 -28 -135 -4 -59 -4 -113 0 -119 4 -7 41 23
95 77 87 86 89 90 89 135 0 32 -5 49 -15 53 -16 6 -22 76 -6 76 9 0 19 -44 27
-127 l6 -52 -92 -95 c-75 -77 -90 -98 -82 -112 9 -15 16 -11 63 32 85 78 108
93 54 35 -27 -29 -69 -66 -92 -82 l-43 -30 0 -271 c0 -270 0 -271 20 -253 19
17 20 31 20 259 l1 241 69 75 c88 95 92 85 5 -12 l-65 -73 0 -230 0 -230 46
48 c41 43 45 52 40 82 -6 31 -1 40 84 134 l90 101 0 339 0 340 110 90 110 91
-22 35 -23 34 -70 -66 c-38 -36 -85 -81 -102 -99 l-33 -34 0 -300 0 -300 -65
-69 c-36 -37 -65 -73 -65 -80 0 -6 9 -16 20 -23 11 -7 20 -16 20 -21 0 -4 -11
0 -25 9 -39 25 -31 51 40 125 l65 67 0 121 c0 105 -2 121 -16 121 -14 0 -15 2
-3 17 11 12 13 51 10 175 l-3 159 108 104 c70 68 115 104 126 101 17 -4 49 26
88 84 13 19 50 63 82 96 l59 62 -3 81 -3 82 -47 -48z m-208 -446 c0 -7 -7 -23
-16 -36 -21 -30 -38 -14 -25 22 11 27 41 38 41 14z m-282 -235 c2 -7 -3 -12
-12 -12 -9 0 -16 7 -16 16 0 17 22 14 28 -4z m-353 -92 c4 -6 0 -22 -9 -35 -9
-13 -16 -43 -16 -66 0 -36 6 -46 55 -93 41 -38 55 -59 55 -79 0 -38 -29 -48
-49 -16 -9 13 -35 45 -59 71 -25 27 -39 49 -33 53 17 10 14 110 -4 125 -19 16
-19 35 1 54 16 16 45 9 59 -14z m-875 -225 c-7 -8 -17 -12 -22 -9 -5 3 -1 12
9 19 22 17 30 11 13 -10z m573 -30 c22 -19 44 -35 49 -35 4 0 8 -5 8 -11 0 -6
40 -53 88 -104 l88 -92 3 -95 2 -95 -47 -69 c-25 -38 -51 -73 -56 -79 -18 -18
21 49 54 94 32 41 33 47 33 132 l0 90 -37 32 c-43 37 -139 153 -133 159 3 2
-20 26 -51 52 l-56 48 -144 -4 c-79 -2 -144 -1 -144 4 0 4 68 8 151 8 l151 0
41 -35z m-564 -9 c9 -10 9 -16 1 -21 -16 -10 -40 2 -40 20 0 19 24 20 39 1z
m201 -73 l-80 -78 0 -90 0 -89 67 -68 c54 -55 73 -68 98 -68 25 0 40 -10 78
-55 l48 -54 102 -4 102 -3 -103 -2 -104 -2 -53 55 c-41 43 -59 55 -82 55 -25
0 -43 14 -97 70 l-66 70 0 92 0 92 52 53 c28 29 50 55 47 57 -3 3 -33 -20 -67
-52 l-62 -57 -2 -93 -2 -92 35 -38 c23 -26 20 -24 -9 6 l-44 43 4 89 3 89 59
53 c82 73 117 98 137 98 12 0 -10 -27 -61 -77z m362 30 c25 -27 77 -88 117
-137 l71 -88 0 -77 0 -77 -49 -48 c-30 -30 -54 -46 -61 -41 -7 4 -54 7 -105 6
l-92 -2 -54 45 c-30 24 -81 72 -113 105 -33 34 -61 59 -63 57 -6 -6 24 -43 84
-103 l51 -52 -30 1 c-24 1 -47 17 -99 66 l-69 64 0 82 0 81 82 82 83 83 100 0
101 0 46 -47z m345 -35 c-3 -8 -6 -5 -6 6 -1 11 2 17 5 13 3 -3 4 -12 1 -19z
m-867 -82 c0 -17 -27 -29 -35 -15 -4 5 -11 7 -16 4 -10 -7 -12 8 -2 18 12 13
53 7 53 -7z m787 -308 c-1 -62 -3 -14 -3 107 0 121 2 172 3 113 2 -59 2 -158
0 -220z m-872 197 c0 -30 -39 -27 -43 3 -3 20 0 23 20 20 15 -2 23 -10 23 -23z
m1245 -73 c0 -11 -22 -32 -32 -32 -5 0 -4 9 2 20 11 20 30 28 30 12z m-1236
-67 c-4 -8 -10 -12 -15 -9 -14 8 -10 24 6 24 9 0 12 -6 9 -15z m242 -60 c7
-18 -13 -45 -33 -45 -19 0 -28 27 -13 45 16 19 39 19 46 0z"/>
<path d="M2206 3303 c-13 -14 -5 -33 14 -33 11 0 20 6 20 14 0 15 -24 28 -34
19z"/>
<path d="M2058 2913 c28 -32 67 -74 88 -93 21 -19 0 7 -46 58 -92 101 -121
126 -42 35z"/>
<path d="M1634 2948 l-84 -82 0 -72 0 -72 51 -57 c29 -30 54 -53 57 -50 3 3
14 -3 25 -12 14 -13 18 -13 12 -3 -15 25 -58 70 -63 66 -2 -3 -16 9 -30 26
-21 25 -25 39 -23 81 3 54 7 60 101 164 l48 52 91 4 91 4 53 -61 c142 -164
147 -172 147 -241 0 -53 -4 -68 -22 -87 -13 -13 -20 -19 -15 -14 11 16 8 26
-9 26 -8 0 -13 -4 -10 -8 2 -4 -4 -19 -15 -32 -10 -14 -19 -19 -19 -12 0 9
-25 12 -89 12 l-89 0 -36 42 -36 42 22 24 c21 21 23 36 26 138 l4 114 -49 0
c-39 -1 -51 -5 -65 -25 -17 -23 -17 -25 7 -53 20 -24 25 -40 23 -78 l-1 -49
-6 50 c-4 31 -9 45 -14 38 -13 -20 -30 -16 -18 4 7 13 5 26 -7 45 -15 26 -15
29 8 53 23 25 29 26 85 21 33 -4 79 -7 102 -9 32 -1 50 -10 77 -36 50 -49 45
-29 -9 34 -36 42 -50 52 -67 47 -21 -5 -21 -6 -2 -13 13 -5 15 -8 4 -8 -9 -1
-22 5 -29 12 -11 10 -13 9 -8 -5 8 -22 -11 -24 -19 -3 -4 10 -21 15 -54 15
-44 0 -51 -4 -92 -48 -60 -64 -100 -126 -96 -149 2 -10 54 -66 116 -125 l113
-108 97 0 c58 0 102 -4 109 -11 8 -8 23 0 57 31 l46 43 0 77 0 77 -79 95 c-43
52 -95 112 -115 132 l-37 36 -91 0 -90 0 -84 -82z m16 -308 c6 -11 8 -20 6
-20 -3 0 -10 9 -16 20 -6 11 -8 20 -6 20 3 0 10 -9 16 -20z"/>
<path d="M1830 2817 c0 -91 -2 -106 -20 -122 -27 -25 -25 -36 14 -74 l35 -34
78 7 c43 4 78 8 79 9 0 1 -2 59 -5 129 -3 69 -3 124 2 121 4 -2 7 -41 7 -87 0
-76 9 -106 32 -106 15 0 8 95 -9 120 l-17 25 22 -19 c17 -15 22 -30 22 -70 0
-28 3 -61 6 -73 11 -40 24 -13 24 48 0 56 -3 65 -46 120 -25 33 -49 57 -53 55
-4 -3 -21 8 -36 24 -25 26 -36 30 -82 30 l-53 0 0 -103z"/>
<path d="M1555 2560 c-7 -12 2 -30 16 -30 5 0 9 9 9 20 0 21 -15 27 -25 10z"/>
<path d="M4320 3846 l0 -246 25 12 24 11 3 227 c2 180 0 226 -10 223 -7 -3
-19 0 -27 7 -13 11 -15 -17 -15 -234z"/>
<path d="M2370 4045 l-34 -35 37 0 c36 0 37 1 37 35 0 19 -1 35 -3 35 -2 0
-18 -16 -37 -35z"/>
<path d="M5083 4048 c-38 -39 -40 -48 -15 -48 32 0 54 24 50 54 l-3 27 -32
-33z"/>
<path d="M1617 4023 c-4 -3 -7 -58 -7 -120 0 -104 2 -114 18 -111 15 3 17 17
20 101 2 71 -1 103 -11 117 -8 11 -17 17 -20 13z"/>
<path d="M2973 3981 c-31 -26 -43 -51 -25 -51 10 0 72 63 72 73 0 13 -15 6
-47 -22z"/>
<path d="M3186 3924 c-52 -48 -97 -92 -99 -98 -2 -6 -1 -128 2 -271 6 -217 9
-255 19 -232 8 19 12 96 12 240 0 120 4 206 9 199 12 -20 17 -19 45 7 26 25
34 51 16 51 -5 0 -9 21 -8 48 1 35 2 39 5 15 2 -17 11 -37 19 -43 23 -20 17
-37 -26 -80 -33 -33 -39 -44 -30 -59 7 -14 6 -22 -5 -31 -22 -18 -22 -210 0
-210 12 0 15 17 15 96 0 76 3 95 13 91 13 -5 93 51 109 76 4 7 8 28 8 47 0 32
-4 37 -35 49 -58 21 -61 77 -6 109 26 14 50 66 37 79 -2 2 -47 -35 -100 -83z"/>
<path d="M840 3992 c0 -4 30 -38 68 -75 64 -64 70 -67 115 -67 26 0 47 4 47
10 0 5 -28 39 -61 75 -59 63 -62 65 -76 45 -18 -26 -43 -26 -50 0 -5 19 -43
29 -43 12z"/>
<path d="M4908 3860 c-87 -89 -120 -130 -129 -160 -7 -22 -10 -42 -8 -45 3 -2
45 35 94 83 50 48 127 116 173 152 45 35 82 70 82 77 0 9 -16 13 -47 13 -47 0
-48 0 -165 -120z"/>
<path d="M0 3964 c0 -3 22 -26 49 -52 95 -92 274 -282 269 -287 -2 -2 -67 57
-144 133 -190 186 -174 175 -174 111 l1 -54 154 -162 155 -162 0 -158 c0 -87
3 -168 6 -180 6 -22 12 -23 90 -23 l83 0 3 218 3 217 -200 203 -201 202 -47 0
c-26 0 -47 -3 -47 -6z m360 -370 c0 -8 -4 -12 -10 -9 -5 3 -10 10 -10 16 0 5
5 9 10 9 6 0 10 -7 10 -16z"/>
<path d="M2339 3952 c-18 -7 -159 -138 -159 -147 0 -3 42 -5 93 -5 92 0 94 0
130 34 32 30 37 39 37 80 l0 46 -42 -1 c-24 0 -50 -3 -59 -7z"/>
<path d="M2467 3953 c-4 -3 -7 -25 -7 -48 0 -34 -6 -47 -38 -78 l-38 -37 -103
0 c-58 0 -112 -5 -124 -11 -12 -7 -75 -61 -139 -122 -103 -95 -118 -113 -118
-141 0 -30 3 -28 93 67 l92 97 234 0 235 0 140 140 141 140 -181 0 c-99 0
-184 -3 -187 -7z m178 -37 c38 -38 15 -86 -41 -86 -50 0 -74 59 -38 94 22 23
51 20 79 -8z m57 -8 c-15 -15 -26 -4 -18 18 5 13 9 15 18 6 9 -9 9 -15 0 -24z
m-139 -135 c5 -43 -6 -63 -36 -63 -17 0 -19 4 -13 42 8 49 13 58 30 58 8 0 16
-15 19 -37z"/>
<path d="M2577 3913 c-23 -22 18 -78 48 -67 17 7 25 38 14 55 -7 11 -11 10
-24 -6 -16 -20 -16 -20 -12 3 5 21 -11 31 -26 15z"/>
<path d="M590 3930 c0 -7 61 -75 135 -150 l135 -137 0 -251 c0 -138 3 -253 8
-255 4 -3 22 -2 40 0 l33 5 -2 134 c-2 97 1 138 10 147 7 7 50 13 111 15 78 3
100 7 100 18 0 10 -13 14 -47 14 l-48 0 -138 144 c-161 168 -337 333 -337 316z"/>
<path d="M2727 3783 l-165 -163 -234 0 -234 0 -59 -67 c-33 -38 -66 -76 -74
-85 -13 -17 0 -18 244 -18 l257 0 216 212 c120 116 220 217 225 224 4 7 3 23
-2 36 -8 22 -19 13 -174 -139z m-479 -204 c-2 -6 -8 -10 -13 -10 -5 0 -11 4
-13 10 -2 6 4 11 13 11 9 0 15 -5 13 -11z m233 -65 c11 -14 9 -15 -25 -8 -28
5 -41 3 -47 -7 -7 -11 -9 -11 -9 2 0 9 3 19 7 22 12 13 61 7 74 -9z"/>
<path d="M3860 3911 c0 -5 6 -14 14 -20 16 -13 32 2 21 19 -8 12 -35 13 -35 1z"/>
<path d="M5065 3883 c-77 -61 -265 -234 -276 -255 -5 -10 -10 -62 -10 -116 0
-53 -2 -135 -5 -182 -4 -64 -2 -81 6 -70 9 12 10 9 5 -13 -5 -25 0 -34 37 -66
35 -32 50 -38 91 -40 l50 -1 -37 40 -36 40 1 103 1 102 52 45 c29 25 80 68
114 95 43 34 62 57 62 73 0 56 -80 5 -169 -109 -11 -15 -53 -55 -93 -90 -68
-58 -66 -55 32 47 58 60 115 120 125 133 l20 25 -30 -21 c-16 -12 -68 -60
-115 -107 -46 -47 -89 -86 -95 -86 -15 0 175 188 224 220 25 17 57 30 73 30
l29 0 -3 63 -3 62 -42 3 c-39 3 -46 0 -87 -45 -30 -32 -44 -54 -40 -65 3 -12
0 -18 -10 -18 -27 0 -18 26 31 84 46 55 48 56 100 56 l53 0 0 50 c0 28 -2 50
-4 50 -2 0 -25 -17 -51 -37z m25 -118 c0 -8 -9 -15 -19 -15 -11 0 -23 -4 -26
-10 -9 -15 -25 -12 -25 5 0 9 9 15 24 15 14 0 28 5 31 10 9 14 15 12 15 -5z"/>
<path d="M1216 3901 c-8 -12 9 -57 24 -66 8 -5 10 5 8 31 -3 36 -20 55 -32 35z"/>
<path d="M1260 3867 c0 -38 5 -48 54 -96 l54 -53 1 57 c0 56 -1 60 -42 96 -55
51 -67 50 -67 -4z"/>
<path d="M3239 3894 c-17 -21 0 -49 32 -49 27 0 37 28 19 50 -16 19 -34 19
-51 -1z m41 -14 c0 -5 -7 -10 -16 -10 -8 0 -12 5 -9 10 3 6 10 10 16 10 5 0 9
-4 9 -10z"/>
<path d="M1831 3876 c-16 -20 -11 -208 7 -214 9 -3 12 24 12 112 0 64 -2 116
-4 116 -2 0 -9 -6 -15 -14z"/>
<path d="M553 3853 c-22 -14 -23 -23 -23 -132 l0 -116 81 -80 c44 -44 86 -89
92 -100 7 -11 14 -79 17 -155 l5 -135 43 -3 42 -3 0 250 0 250 -117 120 c-115
118 -119 120 -140 104z m167 -183 c16 -31 -4 -62 -38 -58 -28 3 -40 32 -28 64
8 21 54 17 66 -6z"/>
<path d="M664 3666 c-9 -24 4 -48 23 -44 12 2 18 12 18 28 0 29 -32 41 -41 16z
m31 -16 c3 -5 1 -10 -4 -10 -6 0 -11 5 -11 10 0 6 2 10 4 10 3 0 8 -4 11 -10z"/>
<path d="M760 3821 c0 -3 67 -70 150 -149 l150 -142 51 0 c43 0 50 3 47 18 -2
11 -15 19 -41 22 -32 4 -58 24 -163 125 -96 92 -134 121 -160 126 -19 3 -34 3
-34 0z"/>
<path d="M1080 3736 c41 -42 80 -76 87 -76 7 0 13 -6 13 -12 1 -7 9 -2 20 10
l20 24 -46 53 c-38 44 -52 53 -87 58 -23 2 -51 8 -62 12 -11 4 14 -27 55 -69z"/>
<path d="M0 3744 l0 -51 42 -7 c23 -4 50 -14 60 -23 40 -36 13 6 -42 67 l-59
65 -1 -51z"/>
<path d="M2983 3731 c-39 -35 -41 -40 -28 -57 8 -10 14 -23 15 -29 0 -5 -38
-43 -85 -84 -47 -41 -97 -86 -111 -100 l-25 -25 2 -318 c0 -175 5 -318 9 -318
16 0 20 33 21 158 1 70 5 161 10 202 5 48 6 -4 3 -140 -4 -196 -6 -216 -24
-235 -18 -19 -20 -36 -20 -167 0 -142 -1 -147 -26 -177 -21 -25 -23 -34 -14
-51 22 -41 -28 -82 -79 -65 -12 3 -41 31 -65 60 l-44 54 -30 -36 -31 -37 51
-61 c80 -94 82 -95 155 -95 50 0 71 5 90 20 22 17 41 20 134 20 102 0 109 1
109 20 0 19 -7 20 -112 20 -103 0 -113 -2 -144 -25 -32 -24 -92 -36 -79 -15 4
6 13 9 20 8 8 -2 15 2 17 7 2 6 -28 15 -67 22 l-70 12 70 -5 c39 -3 75 -10 81
-15 6 -5 19 -3 31 6 14 10 55 15 134 17 l114 3 0 85 0 85 -32 3 c-45 4 -42 22
3 22 l37 0 -5 226 c-5 208 -3 227 14 249 15 20 18 42 18 151 0 126 0 127 -20
109 -17 -15 -20 -33 -23 -139 l-3 -121 -2 126 c-2 122 -1 126 23 149 25 23 25
26 25 177 0 84 -3 153 -6 153 -3 0 -55 -46 -115 -102 -88 -83 -109 -107 -109
-130 0 -24 4 -28 30 -28 33 0 34 -2 21 -28 -5 -9 -12 -25 -15 -35 -9 -28 -60
-19 -64 11 -2 13 1 29 8 37 6 7 10 28 8 47 -1 29 5 40 53 83 194 178 213 203
174 235 -21 17 -19 44 5 65 20 18 26 35 13 35 -5 -1 -27 -18 -50 -39z m-57
-695 c41 -41 42 -49 9 -82 -24 -24 -25 -30 -25 -146 l0 -122 32 -33 32 -33
-22 -22 c-16 -17 -25 -19 -33 -11 -16 16 -1 36 23 30 17 -5 17 -3 6 11 -7 9
-21 23 -30 30 -16 11 -18 31 -18 146 0 120 2 135 20 151 11 10 20 26 20 35 0
23 -36 54 -51 44 -8 -4 -10 -3 -5 4 5 8 0 12 -13 12 -11 0 -22 -9 -26 -20 -7
-21 10 -60 25 -60 6 0 9 -60 8 -152 l-2 -153 -3 146 c-3 131 -6 148 -23 164
-22 20 -25 46 -10 76 16 29 48 23 86 -15z m54 -676 c0 -6 -43 -10 -110 -10
-67 0 -110 4 -110 10 0 6 43 10 110 10 67 0 110 -4 110 -10z"/>
<path d="M4163 3753 c-31 -21 -29 -35 5 -31 19 2 28 9 30 26 4 26 -4 27 -35 5z"/>
<path d="M1237 3720 c33 -52 137 -169 145 -163 5 2 8 10 8 18 0 17 -100 127
-144 158 l-31 22 22 -35z"/>
<path d="M4710 3724 c0 -9 5 -14 12 -12 18 6 21 28 4 28 -9 0 -16 -7 -16 -16z"/>
<path d="M4740 3677 c0 -14 -36 -48 -43 -41 -6 6 -31 -27 -45 -58 -16 -39 3
-37 45 4 18 17 36 28 40 24 4 -4 -11 -26 -35 -48 -35 -32 -46 -37 -57 -28 -13
11 -15 -11 -15 -167 0 -219 2 -223 91 -223 l59 0 -15 23 c-12 19 -15 68 -15
275 -1 139 -3 252 -6 252 -2 0 -4 -6 -4 -13z"/>
<path d="M0 3646 c0 -19 6 -25 27 -28 19 -2 43 -24 90 -83 35 -44 84 -102 108
-130 l44 -50 0 62 1 63 -70 73 c-38 41 -68 77 -65 80 3 4 2 5 -1 3 -3 -3 -23
4 -42 15 -20 10 -49 19 -64 19 -23 0 -28 -4 -28 -24z"/>
<path d="M1221 3646 c-17 -20 -10 -29 19 -24 19 3 19 5 8 21 -13 17 -15 17
-27 3z"/>
<path d="M4351 3596 c-16 -7 -21 -18 -21 -46 0 -24 -7 -43 -20 -55 -13 -12
-17 -25 -14 -44 7 -31 -16 -57 -42 -47 -9 3 -27 -3 -42 -14 -15 -12 -37 -20
-51 -18 -24 3 -26 0 -26 -32 l0 -35 -70 0 -70 0 -3 33 -3 32 -85 0 -84 0 0
-43 c0 -24 -5 -48 -11 -54 -9 -9 -5 -14 15 -19 30 -7 26 -18 -7 -19 -12 0 -23
-7 -25 -17 -6 -30 31 -21 53 12 l20 30 131 0 c106 0 134 -3 144 -15 11 -13 11
-18 1 -28 -10 -9 -16 -7 -28 11 -14 20 -23 22 -112 22 -82 0 -101 -3 -131 -23
l-35 -22 234 -3 c275 -3 271 -4 271 87 0 50 4 60 35 95 35 39 35 41 35 131 0
82 -2 91 -19 91 -10 0 -28 -5 -40 -10z m-44 -328 c-2 -24 -4 -7 -4 37 0 44 2
63 4 43 2 -21 2 -57 0 -80z"/>
<path d="M0 3410 c0 -179 1 -190 19 -190 10 0 39 -3 64 -6 43 -6 47 -5 58 20
21 45 99 24 99 -27 0 -40 -64 -63 -90 -32 -9 11 -32 15 -81 15 l-69 0 0 -29
c0 -35 16 -41 116 -41 84 0 124 -22 124 -69 0 -30 -27 -61 -51 -61 -9 0 -25
-11 -37 -25 -19 -22 -30 -25 -87 -25 -63 0 -65 -1 -65 -25 0 -25 0 -25 103
-27 56 -1 117 -2 135 -3 l32 -2 0 198 0 198 -75 63 c-41 34 -75 66 -75 70 0 4
-18 20 -40 34 -43 29 -54 64 -21 64 11 0 23 -5 27 -11 4 -8 -1 -9 -16 -4 -13
4 -21 3 -19 -2 5 -12 154 -148 192 -175 l27 -19 0 23 c0 15 -16 39 -41 63 -22
22 -73 79 -111 128 -53 65 -76 87 -94 87 l-24 0 0 -190z"/>
<path d="M1196 3575 c-24 -37 -20 -45 23 -45 l40 0 -10 32 c-5 18 -9 34 -9 35
0 2 -6 3 -14 3 -7 0 -21 -11 -30 -25z"/>
<path d="M1250 3596 c0 -1 5 -17 11 -35 8 -23 17 -31 35 -31 31 0 30 10 -4 43
-25 24 -42 34 -42 23z"/>
<path d="M5105 3580 c-3 -5 -1 -10 4 -10 6 0 11 5 11 10 0 6 -2 10 -4 10 -3 0
-8 -4 -11 -10z"/>
<path d="M1440 3566 c0 -18 34 -73 58 -95 15 -13 20 -20 12 -15 -8 4 -4 -4 10
-19 31 -34 79 -36 106 -5 l19 21 -34 -6 c-31 -6 -38 -2 -102 60 -38 36 -69 63
-69 59z"/>
<path d="M3614 3533 c3 -16 3 -22 0 -15 -8 17 -25 15 -18 -2 7 -17 50 -18 65
0 17 21 3 44 -27 44 -23 0 -26 -3 -20 -27z"/>
<path d="M1390 3540 c0 -5 7 -10 15 -10 8 0 15 5 15 10 0 6 -7 10 -15 10 -8 0
-15 -4 -15 -10z"/>
<path d="M1788 3523 c-50 -34 -49 -50 2 -43 20 2 60 40 60 57 0 19 -20 15 -62
-14z"/>
<path d="M5070 3543 c-20 -8 -120 -85 -142 -109 -12 -14 -17 -43 -20 -113 l-3
-94 60 -53 c46 -42 66 -53 85 -50 14 2 35 5 48 5 35 1 29 38 -8 46 -45 10 -53
35 -48 147 4 73 2 98 -7 98 -26 0 -37 -30 -34 -92 5 -101 -17 -135 -63 -99
-19 16 -21 23 -13 47 7 18 19 30 33 32 18 3 22 10 22 42 0 32 7 46 35 74 19
20 35 41 35 47 0 8 7 6 18 -5 18 -15 20 -15 35 2 10 10 17 33 17 50 0 33 -13
39 -50 25z"/>
<path d="M530 3335 l0 -200 70 -3 70 -3 2 88 c4 174 5 170 -73 248 l-69 70 0
-200z"/>
<path d="M4533 3468 l-43 -44 0 -110 0 -110 -50 -49 c-47 -46 -50 -48 -68 -32
-15 14 -39 17 -117 17 l-99 0 44 -45 c24 -25 38 -45 30 -45 -7 0 -33 20 -57
45 l-43 45 -77 0 -78 0 -102 -102 -103 -103 0 -138 c0 -124 -2 -142 -20 -164
-15 -19 -20 -41 -20 -84 l0 -59 72 0 c53 0 77 4 92 18 20 16 20 16 7 0 -13
-17 -4 -18 161 -18 l174 0 97 99 97 98 0 128 0 127 78 82 77 81 -5 203 -5 203
-42 -43z m-332 -480 l49 -53 0 -122 c0 -74 -4 -124 -10 -128 -8 -5 -8 -11 0
-20 8 -9 8 -15 0 -20 -5 -3 -10 2 -10 12 0 12 -22 -5 -70 -52 l-71 -70 -90 -4
c-65 -2 -89 0 -85 8 4 7 40 11 88 11 l81 0 73 77 74 76 0 112 c0 76 -4 117
-13 129 -12 17 -15 16 -48 -14 -82 -77 -79 -71 -79 -131 0 -46 4 -59 25 -79
20 -18 28 -21 37 -12 17 17 17 154 -1 175 -15 19 -1 23 17 5 19 -19 16 -173
-4 -192 -22 -23 -41 -20 -60 9 l-17 26 -22 -21 c-13 -12 -35 -20 -57 -20 -31
0 -40 -5 -58 -35 -24 -39 -87 -93 -137 -119 -36 -18 -73 -21 -73 -6 0 6 12 10
26 10 36 0 62 15 122 73 l52 51 0 110 c0 88 3 113 17 128 23 26 11 32 -15 8
-14 -13 -22 -16 -22 -8 1 22 26 48 47 48 28 0 86 21 95 34 15 22 7 26 -46 26
-51 0 -57 -3 -80 -33 -23 -30 -26 -43 -26 -115 0 -55 -4 -82 -11 -82 -9 0 -10
26 -5 93 6 84 9 94 37 122 27 28 35 30 98 30 38 0 73 3 77 8 18 18 50 3 95
-45z m65 -15 c-10 -10 -19 5 -10 18 6 11 8 11 12 0 2 -7 1 -15 -2 -18z"/>
<path d="M4020 2946 c-53 -29 -70 -68 -70 -159 l0 -85 48 6 c26 2 53 9 60 15
17 14 15 54 -4 61 -13 5 -14 9 -4 21 6 8 9 22 6 33 -4 13 3 25 23 40 l30 21
-29 31 c-32 34 -28 33 -60 16z"/>
<path d="M1813 3479 c-33 -21 -40 -29 -25 -29 8 1 70 50 62 50 -3 0 -20 -10
-37 -21z"/>
<path d="M1180 3357 l0 -114 29 5 c34 5 48 -19 25 -43 -12 -11 -20 -12 -35 -5
-17 10 -19 7 -19 -31 l0 -42 72 5 c85 7 108 26 133 113 19 63 19 61 -56 156
-53 67 -55 68 -101 68 l-48 1 0 -113z m98 36 c-4 -22 -22 -20 -26 1 -2 10 3
16 13 16 10 0 15 -7 13 -17z"/>
<path d="M1300 3464 c0 -4 25 -38 56 -76 52 -65 56 -73 50 -108 -3 -21 -9 -47
-13 -57 -6 -17 -5 -17 15 1 27 24 28 55 2 137 -26 85 -44 109 -81 109 -16 0
-29 -3 -29 -6z"/>
<path d="M5093 3426 c-20 -23 -23 -37 -23 -115 0 -82 2 -90 21 -96 11 -4 23
-5 25 -2 3 2 3 57 2 121 l-3 118 -22 -26z"/>
<path d="M3137 3433 c-3 -5 -5 -36 -4 -70 2 -51 -2 -65 -20 -85 -22 -23 -23
-33 -23 -164 0 -110 -3 -144 -16 -162 -9 -14 -14 -38 -12 -65 l3 -42 20 34
c11 18 37 56 58 84 33 46 37 58 37 113 0 53 -4 66 -30 99 -35 45 -35 43 -11
69 15 16 20 40 22 105 3 58 0 85 -8 88 -6 2 -14 0 -16 -4z"/>
<path d="M3206 3419 c4 -7 24 -9 50 -6 29 3 51 -1 66 -11 l23 -16 -19 22 c-15
18 -30 22 -73 22 -37 0 -52 -3 -47 -11z"/>
<path d="M1010 3400 c-18 -18 -20 -33 -20 -140 l0 -120 85 0 85 0 0 140 0 140
-65 0 c-52 0 -69 -4 -85 -20z"/>
<path d="M3180 3322 c0 -53 5 -93 12 -100 6 -6 11 -50 12 -109 1 -91 2 -98 20
-95 19 4 19 2 3 -22 -23 -35 -21 -47 9 -71 34 -27 35 -72 4 -97 -29 -23 -45
-23 -70 2 -26 26 -25 64 3 87 24 20 38 78 16 71 -13 -4 -29 -28 -68 -99 -11
-19 -27 -41 -35 -48 -13 -11 -16 -35 -16 -121 l0 -107 32 -9 c17 -5 33 -15 36
-23 3 -8 0 -11 -6 -7 -6 3 -13 2 -17 -4 -3 -5 1 -10 9 -10 9 0 16 -4 16 -10 0
-9 -28 -15 -57 -11 -8 1 -13 -9 -13 -24 0 -14 5 -25 10 -25 6 0 10 4 10 9 0
14 63 8 66 -7 1 -7 0 -8 -3 -2 -7 15 -33 12 -39 -5 -4 -8 -15 -15 -25 -15 -17
0 -19 -8 -19 -80 l0 -80 41 0 c25 0 52 -8 70 -21 16 -11 33 -17 39 -14 5 3 10
46 10 96 l0 90 35 20 c40 24 45 49 15 86 -26 33 -25 45 5 82 25 28 26 35 23
138 -2 86 -6 107 -17 105 -21 -4 -6 59 19 80 19 15 20 29 20 198 0 106 -4 189
-10 201 -8 14 -21 19 -56 19 -25 0 -54 5 -65 10 -18 10 -19 7 -19 -78z"/>
<path d="M1632 3347 c-29 -29 -52 -56 -52 -60 0 -4 54 -7 119 -7 139 0 151 6
151 76 l0 44 -83 0 -83 0 -52 -53z"/>
<path d="M1475 3344 c8 -58 14 -69 27 -56 11 11 -7 88 -24 98 -8 5 -9 -7 -3
-42z"/>
<path d="M1550 3356 c0 -21 20 -30 33 -17 9 9 8 14 -3 21 -21 14 -30 12 -30
-4z"/>
<path d="M4004 3345 c-10 -26 6 -35 62 -35 55 0 68 12 42 38 -17 17 -97 16
-104 -3z"/>
<path d="M2790 3285 c-10 -12 -9 -16 5 -21 19 -8 40 9 31 25 -10 15 -21 14
-36 -4z"/>
<path d="M4934 3276 c-10 -26 4 -48 28 -44 17 2 23 10 23 28 0 18 -6 26 -23
28 -13 2 -25 -3 -28 -12z"/>
<path d="M1460 3195 l-64 -65 31 0 c23 0 44 12 81 45 l50 45 163 2 164 2 -166
6 c-108 3 -171 9 -181 17 -12 10 -25 1 -78 -52z"/>
<path d="M3755 3220 c-10 -11 -13 -20 -8 -20 13 0 38 29 31 35 -3 3 -13 -4
-23 -15z"/>
<path d="M2380 2837 l0 -392 -40 -50 c-22 -27 -40 -53 -40 -57 0 -5 20 -8 45
-8 34 0 47 5 55 19 6 12 10 121 10 283 0 217 3 268 15 284 19 25 19 38 0 30
-13 -5 -15 12 -14 117 2 154 2 154 -16 161 -13 5 -15 -42 -15 -387z"/>
<path d="M1753 3212 c-135 -2 -143 -4 -143 -22 0 -19 7 -20 135 -20 126 0 135
1 145 21 7 11 10 21 8 22 -2 1 -67 1 -145 -1z"/>
<path d="M3662 3056 c-81 -81 -83 -85 -89 -140 -5 -48 -3 -56 11 -56 13 0 16
10 16 50 0 47 2 51 71 121 69 71 97 109 82 109 -5 0 -46 -38 -91 -84z"/>
<path d="M3739 3093 c-34 -37 -39 -49 -41 -95 -1 -53 -2 -53 -5 -9 l-4 44 -40
-39 -39 -38 0 -223 0 -223 50 0 50 0 0 58 c0 47 4 59 20 70 20 12 21 22 19
155 l-1 142 96 95 c53 51 96 98 96 102 0 5 -36 7 -81 6 l-81 -3 -39 -42z m-21
-305 l-1 -143 -7 135 c-7 126 -6 150 6 150 2 0 3 -64 2 -142z m-23 -219 c10
-15 -1 -23 -20 -15 -9 3 -13 10 -10 16 8 13 22 13 30 -1z"/>
<path d="M320 2980 l0 -100 91 0 92 0 -6 88 c-4 48 -7 93 -7 100 0 9 -24 12
-85 12 l-85 0 0 -100z"/>
<path d="M530 3040 c0 -35 3 -40 28 -46 15 -4 31 -9 35 -11 13 -8 -24 -43 -45
-43 -14 0 -18 -8 -18 -31 0 -26 3 -30 18 -24 34 15 72 17 87 5 35 -29 94 -52
143 -54 48 -3 55 0 77 26 14 16 25 33 25 37 0 4 -16 21 -35 38 -32 29 -35 36
-35 87 l0 56 -45 0 -45 0 0 -68 c0 -56 4 -72 20 -87 19 -17 21 -17 39 -1 18
17 21 17 45 1 48 -31 23 -55 -56 -55 -52 0 -59 3 -75 27 -12 18 -19 52 -22
105 l-3 78 -69 0 -69 0 0 -40z m90 -104 c0 -3 -4 -8 -10 -11 -5 -3 -10 -1 -10
4 0 6 5 11 10 11 6 0 10 -2 10 -4z"/>
<path d="M860 3022 c0 -65 11 -82 52 -82 32 0 38 23 11 40 -17 10 -17 10 0 20
11 7 17 23 17 45 0 34 -1 35 -40 35 l-40 0 0 -58z"/>
<path d="M992 3023 l3 -58 78 -3 c77 -3 77 -3 77 23 0 24 -2 25 -66 25 -41 0
-63 4 -59 10 3 6 33 10 66 10 56 0 59 1 59 25 0 25 -1 25 -80 25 l-81 0 3 -57z"/>
<path d="M4567 3002 l-77 -77 0 -112 c0 -61 -5 -124 -11 -140 -5 -15 -45 -63
-87 -105 l-77 -78 67 0 67 0 110 108 c96 93 111 112 111 140 0 41 16 42 22 1
5 -29 -4 -40 -106 -140 l-111 -108 40 0 c35 -1 47 6 97 54 31 31 66 70 77 89
12 18 41 52 66 75 l45 41 101 0 101 0 50 40 c28 22 55 40 59 40 5 0 9 39 9 86
l0 86 -62 -55 c-55 -49 -62 -60 -62 -94 -1 -33 -5 -40 -36 -55 -24 -12 -59
-18 -110 -18 -70 0 -76 -2 -107 -32 -18 -17 -36 -29 -39 -25 -4 4 10 22 31 42
37 33 42 35 113 35 97 0 138 21 127 66 -3 15 14 38 70 94 41 41 75 80 75 87 0
9 -14 13 -41 13 -37 0 -49 -7 -106 -60 -35 -33 -71 -60 -79 -60 -8 0 -37 20
-63 45 -40 37 -55 45 -86 45 -25 0 -49 8 -70 24 l-32 25 -76 -77z m145 -117
c8 -19 8 -28 -2 -40 -23 -28 -70 -12 -70 25 0 42 54 54 72 15z"/>
<path d="M4720 3070 c0 -6 7 -10 15 -10 8 0 15 2 15 4 0 2 -7 6 -15 10 -8 3
-15 1 -15 -4z"/>
<path d="M0 3036 c0 -19 4 -38 10 -41 12 -7 90 32 90 45 0 6 4 10 10 10 5 0 7
-7 4 -15 -8 -20 -67 -55 -93 -55 -11 0 -21 -4 -21 -10 0 -17 121 -12 140 5 16
14 16 18 1 51 -15 34 -18 35 -63 31 -25 -2 -53 0 -62 5 -13 7 -16 3 -16 -26z"/>
<path d="M4824 3015 c33 -30 64 -55 70 -55 7 0 36 25 66 55 61 61 54 74 -10
20 -23 -19 -45 -35 -48 -35 -61 1 -70 51 -12 61 24 4 9 7 -45 7 l-80 1 59 -54z"/>
<path d="M535 2970 c-3 -6 1 -7 9 -4 18 7 21 14 7 14 -6 0 -13 -4 -16 -10z"/>
<path d="M886 2898 c-3 -13 -6 -97 -6 -188 l0 -165 50 3 c40 3 50 1 50 -12 0
-12 -9 -14 -52 -9 -49 6 -52 5 -39 -11 11 -13 11 -20 3 -28 -7 -7 -12 -22 -12
-35 0 -23 2 -23 108 -23 60 0 112 -3 115 -7 8 -8 107 -43 121 -43 6 0 -42 53
-106 118 -63 64 -123 131 -132 149 -12 23 -16 59 -16 133 0 56 -5 110 -10 121
-16 28 -66 26 -74 -3z"/>
<path d="M3223 2900 c24 -15 21 -49 -5 -60 -16 -6 -18 -9 -7 -9 40 -2 53 71
14 77 -18 2 -18 2 -2 -8z"/>
<path d="M182 2823 c-9 -13 -14 -15 -18 -5 -4 8 -30 11 -87 10 l-82 -2 78 -3
c99 -5 101 -23 2 -23 l-75 0 0 -40 0 -40 113 0 c105 0 115 2 134 23 11 12 24
39 27 60 l7 37 -43 0 c-30 0 -47 -6 -56 -17z"/>
<path d="M3570 2742 c0 -122 10 -232 21 -232 5 0 9 72 9 159 0 132 -3 160 -15
165 -13 4 -15 -10 -15 -92z"/>
<path d="M320 2794 c0 -19 -5 -44 -10 -55 -10 -18 -7 -19 40 -19 58 0 86 -11
117 -49 l22 -26 1 93 0 92 -85 0 -85 0 0 -36z"/>
<path d="M530 2702 c1 -87 4 -122 15 -136 8 -11 15 -39 15 -63 0 -67 19 -51
22 20 l3 62 40 1 c32 1 34 1 8 -3 l-33 -4 0 -60 0 -59 60 0 60 0 0 159 0 160
-31 22 c-30 21 -31 21 -65 3 -33 -18 -36 -18 -64 -2 l-30 17 0 -117z"/>
<path d="M760 2645 c0 -118 3 -175 11 -175 6 0 9 15 7 38 -3 35 -2 37 30 40
l33 3 -7 122 c-4 67 -11 128 -17 135 -5 6 -20 12 -33 12 l-24 0 0 -175z"/>
<path d="M3367 2783 c-11 -10 -8 -123 3 -123 6 0 10 28 10 65 0 65 -1 71 -13
58z"/>
<path d="M5090 2765 c-10 -13 -9 -15 9 -15 12 0 21 6 21 15 0 8 -4 15 -9 15
-5 0 -14 -7 -21 -15z"/>
<path d="M2647 2656 c-61 -68 -67 -78 -67 -119 0 -31 -6 -49 -20 -62 -28 -25
-26 -36 21 -89 34 -38 47 -46 75 -46 38 0 56 23 34 43 -10 10 -12 8 -7 -5 5
-13 1 -18 -13 -18 -30 0 -24 18 20 71 l40 48 0 125 c0 69 -4 126 -8 126 -5 0
-39 -33 -75 -74z"/>
<path d="M4814 2690 c-24 -10 -39 -28 -30 -37 3 -3 12 0 20 7 11 8 59 12 166
11 129 -2 150 0 150 14 0 13 -20 15 -142 14 -79 0 -153 -4 -164 -9z"/>
<path d="M178 2662 l-178 -2 0 -60 0 -60 69 0 69 0 41 -46 c23 -26 41 -51 41
-55 0 -5 59 -9 130 -9 72 0 130 3 130 8 0 4 -7 18 -16 31 -12 17 -15 36 -11
70 5 42 3 49 -28 83 -19 20 -42 38 -52 40 -10 2 -98 2 -195 0z m236 -57 c7
-19 -20 -46 -39 -39 -8 4 -15 17 -15 30 0 19 5 24 24 24 13 0 26 -7 30 -15z"/>
<path d="M4803 2634 c-13 -14 -23 -28 -23 -30 0 -2 77 -4 170 -4 l170 0 0 30
0 30 -71 0 c-57 0 -75 -4 -85 -17 -13 -17 -13 -17 -14 0 0 14 -10 17 -62 17
-55 0 -66 -4 -85 -26z"/>
<path d="M3070 2573 c0 -25 1 -26 16 -11 9 9 13 21 10 27 -13 20 -26 11 -26
-16z"/>
<path d="M4648 2538 l-47 -48 32 0 c22 0 45 10 67 29 35 29 35 30 15 49 -20
18 -21 18 -67 -30z"/>
<path d="M3353 2568 c-19 -9 -23 -19 -23 -60 0 -26 5 -48 10 -48 7 0 7 -6 0
-19 -5 -11 -10 -78 -10 -149 0 -116 -2 -131 -20 -147 -11 -10 -16 -23 -12 -29
10 -16 23 -168 22 -264 l-2 -83 25 6 c42 11 75 -43 45 -73 -7 -7 -25 -12 -40
-12 -63 0 -118 -54 -86 -86 11 -11 13 -8 13 19 0 29 3 32 30 32 27 0 30 -4 33
-32 3 -27 -1 -35 -23 -45 -23 -10 -29 -9 -53 15 -26 26 -26 29 -12 55 9 15 25
31 36 36 14 6 21 19 21 35 -1 14 1 31 3 36 2 6 0 83 -4 173 -8 153 -9 165 -33
192 -24 29 -27 30 -114 30 -53 0 -89 -4 -89 -10 0 -6 30 -10 70 -10 39 0 70
-3 70 -7 0 -5 -31 -7 -70 -5 l-70 4 0 -32 c0 -21 8 -38 23 -50 19 -16 23 -31
29 -122 4 -56 6 -166 5 -243 -4 -279 -5 -271 40 -318 46 -47 67 -83 58 -97 -4
-6 -78 -10 -181 -10 -172 0 -175 0 -199 25 -21 20 -25 34 -25 81 0 41 -6 64
-21 85 -11 16 -16 29 -10 29 24 0 51 -59 51 -112 0 -30 5 -59 12 -66 14 -14
358 -17 358 -3 0 5 -22 32 -50 61 l-50 52 0 184 c0 157 -2 184 -15 184 -17 0
-20 25 -5 35 17 10 12 85 -5 85 -12 0 -15 -13 -15 -61 0 -80 -16 -104 -133
-211 -174 -158 -158 -148 -242 -148 l-75 0 0 -32 c0 -41 -29 -103 -66 -144
-16 -18 -105 -103 -199 -189 -277 -257 -555 -536 -555 -558 0 -11 -11 -35 -25
-53 -23 -29 -25 -42 -25 -127 0 -51 3 -155 7 -230 l6 -137 38 0 38 0 4 58 3
57 2 -58 c1 -42 6 -57 15 -54 9 3 12 37 12 128 l0 124 -24 0 c-13 0 -26 -6
-28 -12 -7 -19 27 -29 39 -12 7 11 8 9 6 -6 -2 -14 -11 -20 -27 -20 -31 0 -39
40 -12 57 19 11 18 14 -15 50 -32 36 -34 41 -32 106 l2 67 3 -67 c4 -66 5 -68
53 -112 l50 -44 0 -131 c0 -107 3 -131 14 -131 12 0 15 22 18 109 2 60 -1 116
-6 124 -6 10 -6 24 1 39 8 18 7 31 -7 58 -14 30 -16 55 -10 185 l7 150 1 -152
c2 -162 15 -216 53 -226 17 -5 19 -17 19 -146 l0 -141 124 0 125 0 4 48 3 47
2 -47 c2 -35 6 -48 17 -48 12 0 15 13 15 61 l0 62 258 261 c161 163 263 260
274 259 10 -2 48 29 90 70 40 40 135 132 211 204 l137 132 0 136 0 137 -47 44
-48 43 -2 72 c-1 40 3 81 8 91 13 25 59 24 59 -1 0 -17 10 -20 67 -27 36 -3
77 -3 90 2 13 5 56 38 97 74 l73 65 7 211 c6 205 1 264 -24 264 -16 0 -23 -47
-18 -118 4 -42 2 -60 -3 -47 -8 18 -8 17 -6 -5 1 -14 8 -24 15 -22 8 1 10 -2
7 -9 -5 -8 -11 -7 -20 3 -11 10 -11 32 -4 103 5 50 12 154 15 233 l5 143 -68
69 c-61 61 -70 67 -90 58z m112 -142 c16 -12 18 -26 16 -132 -1 -65 -6 -123
-12 -129 -5 -5 -9 -54 -9 -108 0 -91 2 -102 25 -129 23 -28 25 -36 23 -131
l-2 -102 -5 102 c-5 87 -9 105 -29 126 -19 20 -24 38 -29 123 -5 81 -3 106 10
131 11 20 16 54 15 96 -1 64 -1 65 -24 55 -45 -21 -94 37 -66 78 9 13 43 33
58 34 5 0 19 -6 29 -14z m-248 -353 c-9 -9 -20 -13 -24 -9 -4 4 -1 11 7 16 25
16 35 11 17 -7z m28 -13 c3 -5 1 -10 -4 -10 -6 0 -11 5 -11 10 0 6 2 10 4 10
3 0 8 -4 11 -10z m-17 -209 c-3 -161 -9 -220 -20 -200 -2 2 -1 85 2 184 4 152
3 182 -10 192 -13 11 -12 12 8 13 l23 0 -3 -189z m231 -16 c-1 -135 -2 -146
-17 -131 -11 10 -11 19 -3 34 6 11 11 58 11 103 0 45 2 80 4 78 3 -3 5 -40 5
-84z m-545 -344 c3 -5 -1 -14 -8 -20 -16 -13 -32 2 -21 19 8 12 22 13 29 1z
m86 -21 c0 -5 -4 -10 -9 -10 -6 0 -13 5 -16 10 -3 6 1 10 9 10 9 0 16 -4 16
-10z m175 -305 c14 -13 25 -35 25 -48 0 -14 7 -30 15 -37 8 -7 15 -17 15 -23
0 -6 -11 0 -25 13 -15 14 -25 35 -25 51 0 18 -7 32 -19 39 -29 15 -600 13
-627 -3 -17 -10 -376 -344 -536 -498 l-38 -37 0 -85 0 -85 68 -71 c37 -39 68
-78 69 -87 0 -8 0 -14 -2 -12 -1 2 -34 39 -74 82 l-71 79 0 95 0 95 48 46
c204 197 515 487 534 497 17 10 96 13 321 14 l298 0 24 -25z m-283 -72 c19
-17 26 -93 8 -93 -6 0 -8 10 -4 24 3 13 1 34 -6 45 -9 18 -20 21 -80 21 -38 0
-71 -3 -73 -8 -3 -4 -3 -28 0 -53 5 -41 9 -46 37 -55 24 -7 32 -16 34 -36 3
-27 18 -34 60 -29 6 1 12 -3 12 -9 0 -9 -75 -16 -137 -12 -31 1 -29 -11 8 -42
34 -29 45 -32 51 -14 6 16 38 2 38 -17 0 -8 -5 -15 -11 -15 -5 0 -7 4 -4 10 4
6 -6 7 -24 4 -26 -5 -36 -1 -66 29 -29 29 -35 42 -35 76 0 24 5 44 13 46 8 4
11 23 9 60 -6 83 -4 85 79 85 53 0 77 -4 91 -17z m-330 -170 c15 -15 28 -34
28 -44 0 -9 7 -22 15 -29 8 -7 15 -17 15 -23 0 -5 -9 -2 -20 8 -11 10 -20 28
-20 40 0 12 -13 31 -31 44 -35 26 -49 23 -19 -4 13 -12 20 -31 20 -55 0 -31 6
-42 35 -65 34 -26 36 -28 34 -88 -2 -57 -5 -65 -39 -99 -21 -21 -41 -38 -46
-38 -4 0 9 18 30 39 21 22 36 45 34 52 -3 8 -48 -29 -117 -94 -79 -75 -119
-107 -136 -107 -26 0 -237 180 -243 207 -3 10 50 70 129 149 l134 134 84 0
c78 0 87 -2 113 -27z m358 -18 c0 -8 -7 -15 -15 -15 -8 0 -15 7 -15 15 0 8 7
15 15 15 8 0 15 -7 15 -15z m-810 -324 c7 -15 5 -25 -9 -42 -16 -21 -22 -22
-45 -11 -43 19 -28 72 21 72 12 0 27 -9 33 -19z m69 -117 c-13 -25 -12 -28 9
-42 12 -8 22 -19 22 -25 0 -6 -21 -33 -47 -59 -44 -45 -47 -52 -48 -100 0 -46
-3 -53 -20 -53 -29 0 -32 42 -6 66 12 11 21 28 21 37 0 10 18 36 40 57 45 44
48 55 20 73 -24 15 -26 39 -3 64 22 25 30 14 12 -18z m-119 -4 c0 -5 -9 -14
-20 -20 -22 -12 -27 -1 -8 18 14 14 28 16 28 2z m319 -19 c21 -13 -5 -43 -33
-39 -21 3 -36 38 -17 38 6 0 11 -7 11 -15 0 -8 5 -15 11 -15 6 0 9 9 6 20 -6
22 0 25 22 11z m-508 -99 c17 -19 28 -37 25 -40 -3 -3 -7 -3 -9 -1 -2 2 -15
19 -30 37 -20 24 -27 44 -25 70 l1 37 4 -35 c3 -19 18 -49 34 -68z m109 -17
c0 -8 -4 -15 -10 -15 -5 0 -10 7 -10 15 0 8 5 15 10 15 6 0 10 -7 10 -15z
m238 -157 c17 -17 15 -55 -4 -62 -25 -10 -33 -7 -44 14 -20 38 19 77 48 48z
m-100 -90 c2 -19 -2 -28 -18 -33 -24 -8 -50 10 -50 35 0 24 10 31 40 28 19 -2
26 -10 28 -30z"/>
<path d="M3406 2407 c-26 -19 -18 -61 12 -65 44 -7 67 32 36 62 -19 19 -25 20
-48 3z m39 -27 c3 -5 -3 -10 -14 -10 -12 0 -21 5 -21 10 0 6 6 10 14 10 8 0
18 -4 21 -10z"/>
<path d="M2724 945 c-12 -30 4 -48 38 -41 40 8 42 10 28 35 -13 25 -58 29 -66
6z m44 -7 c-3 -7 -11 -13 -18 -13 -7 0 -15 6 -17 13 -3 7 4 12 17 12 13 0 20
-5 18 -12z"/>
<path d="M2237 802 c-119 -119 -126 -129 -113 -147 14 -19 21 -14 140 105
l126 124 39 -38 c35 -35 43 -38 75 -32 33 6 36 10 36 40 0 53 -33 76 -111 76
l-64 0 -128 -128z"/>
<path d="M2273 748 c-63 -63 -109 -117 -105 -123 4 -5 22 -23 40 -40 l32 -29
115 114 115 114 -37 38 c-20 21 -40 38 -43 38 -3 0 -56 -51 -117 -112z"/>
<path d="M2500 791 c0 -12 26 -21 63 -21 30 1 31 1 13 15 -22 16 -76 20 -76 6z"/>
<path d="M2365 660 c-71 -71 -106 -113 -102 -123 7 -20 74 -70 86 -65 5 1 64
53 130 113 151 138 157 165 39 177 l-46 5 -107 -107z"/>
<path d="M2054 569 c-8 -14 18 -31 30 -19 9 9 0 30 -14 30 -5 0 -12 -5 -16
-11z"/>
<path d="M2082 219 c2 -6 8 -10 13 -10 5 0 11 4 13 10 2 6 -4 11 -13 11 -9 0
-15 -5 -13 -11z"/>
<path d="M2072 79 c5 -14 21 -14 26 0 2 6 -4 11 -13 11 -9 0 -15 -5 -13 -11z"/>
<path d="M4763 2510 l-67 -60 -201 0 -201 0 -37 -37 -36 -38 219 3 c150 2 220
0 220 -7 0 -8 -74 -11 -224 -11 l-224 0 -30 -25 c-29 -24 -36 -25 -162 -25
l-133 0 -103 -96 c-103 -95 -118 -120 -89 -144 13 -11 15 -8 15 17 0 22 14 43
60 88 33 33 60 54 60 48 0 -7 -25 -33 -55 -60 -47 -41 -55 -53 -55 -83 0 -19
5 -42 10 -50 7 -11 10 -8 10 16 0 26 29 84 30 60 0 -6 15 4 33 21 62 58 101
81 122 73 11 -5 108 -9 215 -9 l195 0 64 59 64 60 -110 0 c-85 0 -113 -3 -123
-15 -14 -17 -4 -39 16 -31 8 3 14 1 14 -4 0 -6 -11 -10 -25 -10 -21 0 -25 5
-25 29 0 16 6 33 13 39 6 5 106 13 221 17 l209 7 54 59 c54 57 56 59 107 59
43 0 57 5 76 25 22 24 30 25 127 25 l103 0 0 30 0 30 -145 0 -144 0 -68 -60z
m-803 -219 c0 -5 -26 -30 -57 -57 -32 -26 -53 -42 -48 -36 74 86 105 114 105
93z"/>
<path d="M470 2526 c0 -19 5 -38 10 -41 6 -4 10 8 10 29 0 19 -4 38 -10 41 -6
4 -10 -8 -10 -29z"/>
<path d="M801 2531 c-8 -5 -12 -23 -9 -47 2 -33 0 -39 -14 -36 -10 2 -18 -2
-18 -8 0 -5 16 -10 35 -10 l36 0 -7 53 c-8 61 -6 58 -23 48z"/>
<path d="M3606 2468 c-3 -13 -6 -80 -6 -149 0 -120 1 -127 24 -148 24 -23 24
-23 31 -2 3 11 5 75 4 141 -3 111 -1 121 19 143 31 33 28 37 -22 37 -37 0 -45
-4 -50 -22z m17 -162 c3 -76 1 -123 -4 -115 -8 13 -13 257 -5 248 2 -2 6 -62
9 -133z"/>
<path d="M0 2455 c0 -25 1 -25 88 -25 l87 1 -28 24 c-23 21 -39 25 -88 25 -56
0 -59 -1 -59 -25z"/>
<path d="M3577 2453 c-11 -10 -8 -216 3 -233 7 -10 10 26 10 113 0 70 -1 127
-3 127 -2 0 -7 -3 -10 -7z"/>
<path d="M630 2440 l-65 -7 83 -1 c53 -1 81 2 77 8 -3 6 -12 9 -18 8 -7 -1
-41 -4 -77 -8z"/>
<path d="M3262 2438 c-7 -7 -12 -38 -12 -70 0 -51 2 -58 20 -58 18 0 20 7 20
54 0 30 3 61 6 70 7 19 -16 22 -34 4z"/>
<path d="M3705 2425 c-24 -23 -25 -30 -25 -137 l0 -112 21 21 c19 19 22 33 22
125 l0 103 6 -100 6 -100 70 70 70 70 127 5 128 5 37 38 38 37 -50 0 c-42 0
-52 -4 -60 -22 -22 -49 -68 -49 -90 0 -9 21 -16 22 -143 22 -128 0 -134 -1
-157 -25z m135 -15 c0 -5 -7 -10 -15 -10 -8 0 -15 5 -15 10 0 6 7 10 15 10 8
0 15 -4 15 -10z m-47 -20 c3 -11 1 -20 -4 -20 -5 0 -9 9 -9 20 0 11 2 20 4 20
2 0 6 -9 9 -20z m-24 -90 l-1 -25 -8 25 c-4 14 -8 32 -9 40 -1 13 0 13 9 0 5
-8 9 -26 9 -40z"/>
<path d="M4920 2440 c0 -6 33 -10 80 -10 47 0 80 -4 80 -10 0 -6 -30 -10 -69
-10 -50 0 -74 -4 -85 -16 -9 -8 -16 -13 -16 -9 0 4 -7 -1 -16 -9 -8 -9 -32
-16 -52 -16 -29 0 -45 -8 -79 -42 -24 -23 -43 -38 -43 -32 0 5 18 28 40 49 31
30 51 41 88 46 l47 6 -63 2 c-60 1 -64 0 -109 -41 l-46 -43 -101 -3 -101 -4
-60 -58 -60 -59 -222 -7 -223 -7 -50 -53 -50 -53 0 -108 c0 -90 3 -113 20
-141 20 -33 54 -52 94 -52 15 0 60 -40 149 -134 110 -116 127 -139 127 -168
l1 -33 13 25 c12 21 36 144 36 180 0 8 -10 9 -30 5 -25 -6 -36 0 -80 41 -52
48 -63 81 -36 104 20 16 56 9 70 -13 9 -15 6 -22 -16 -42 l-28 -24 31 -25 c17
-14 38 -26 46 -26 9 0 64 48 124 108 99 98 109 110 109 144 0 27 6 41 22 52
33 24 47 20 65 -19 l17 -36 96 3 95 3 3 53 3 52 -100 0 c-81 0 -101 -3 -101
-14 0 -8 -5 -18 -11 -22 -8 -4 -9 1 -4 16 7 21 5 22 -29 18 -23 -2 -35 0 -33
6 2 7 73 13 190 16 130 3 190 9 199 18 8 8 51 12 140 12 l128 0 0 40 0 39 -92
4 -93 3 93 2 93 2 -3 26 -3 27 -119 -2 c-108 -2 -121 -4 -134 -22 -42 -60
-131 -31 -132 44 0 27 -1 27 -65 27 -38 0 -65 -4 -65 -10 0 -6 -21 -34 -47
-62 -35 -36 -47 -57 -45 -74 3 -17 -3 -26 -20 -33 -13 -5 -47 -34 -76 -65 -72
-76 -120 -112 -133 -99 -7 7 -3 12 13 16 13 4 55 38 92 77 50 52 66 74 61 89
-4 14 6 27 43 54 27 19 59 49 71 66 21 29 21 31 4 31 -10 0 -54 -36 -98 -80
l-80 -80 -205 0 -206 0 -32 -33 c-27 -28 -32 -41 -34 -87 l-1 -55 -7 55 c-6
51 -7 49 -8 -33 -3 -116 4 -127 73 -127 43 0 56 4 65 19 14 28 13 38 -10 61
-15 15 -16 20 -5 20 17 0 35 -30 35 -59 0 -38 -35 -61 -90 -61 -47 0 -52 2
-80 42 -27 37 -30 49 -30 115 0 87 6 100 62 144 l43 33 -45 -48 c-42 -44 -45
-50 -46 -104 0 -31 2 -70 6 -87 5 -21 8 -6 9 50 l1 81 48 47 48 47 206 0 205
0 73 76 c39 42 69 78 67 81 -9 9 -50 -19 -104 -69 l-52 -50 -223 -5 -223 -5
-47 -46 c-27 -26 -48 -41 -48 -35 0 6 24 32 52 57 l53 46 213 0 213 0 47 43
c83 77 83 77 219 77 75 0 124 4 128 11 4 5 19 15 33 20 21 8 31 6 53 -11 25
-18 43 -20 154 -20 l125 0 0 25 c0 25 -1 25 -80 25 -58 0 -80 4 -80 13 0 9 20
11 80 9 l80 -4 0 56 0 56 -100 0 c-60 0 -100 -4 -100 -10z m-280 -349 c0 -10
-7 -24 -15 -31 -13 -10 -19 -10 -35 5 -24 22 -25 29 -4 49 19 20 54 5 54 -23z
m-394 -56 c19 -19 23 -31 18 -48 -10 -34 -24 -47 -52 -47 -56 0 -81 61 -42
100 27 27 46 25 76 -5z m-246 -70 c0 -8 -7 -15 -15 -15 -8 0 -15 7 -15 15 0 8
7 15 15 15 8 0 15 -7 15 -15z m374 -66 c19 -27 10 -49 -19 -49 -28 0 -43 34
-25 55 17 20 26 19 44 -6z m-387 -25 c14 -38 -41 -71 -66 -40 -7 8 -10 24 -6
36 8 25 62 28 72 4z"/>
<path d="M1007 2363 l-128 -4 2 -119 c1 -80 5 -125 14 -137 11 -15 32 -18 145
-21 92 -3 130 -7 127 -15 -2 -8 -44 -10 -138 -8 -133 2 -134 3 -164 32 -30 29
-30 31 -33 149 l-4 120 -34 0 -34 0 0 -161 0 -161 -36 -49 c-20 -27 -50 -57
-66 -65 -23 -12 -29 -20 -24 -36 5 -22 -9 -58 -28 -70 -6 -4 -22 -8 -34 -8
-24 0 -24 -1 -20 -105 3 -95 5 -106 26 -120 33 -24 29 -67 -9 -103 -24 -22
-30 -34 -24 -51 6 -19 33 5 233 202 436 430 432 427 559 427 53 1 84 5 97 15
17 13 18 15 3 15 -9 0 -17 4 -17 9 0 5 -9 11 -21 14 -11 3 -25 19 -32 36 -11
31 -12 31 -85 31 -71 0 -76 -2 -113 -35 l-39 -35 -114 0 c-158 0 -161 19 -4
22 l123 3 3 37 c4 53 30 68 112 67 l65 -2 -70 -8 c-72 -8 -95 -23 -95 -63 0
-18 2 -18 28 7 25 24 36 27 95 27 37 0 67 3 67 7 0 3 -10 20 -23 37 -64 85
-28 53 77 -69 l39 -45 236 0 237 0 75 70 74 69 -155 1 -156 0 -39 -40 -39 -40
-117 0 -116 0 -40 43 c-21 23 -50 57 -63 75 -22 30 -28 32 -85 32 -38 0 -68 5
-81 15 -10 8 -21 14 -24 13 -3 -2 -63 -4 -133 -5z m229 -82 c-10 -16 -36 -13
-36 3 0 17 21 27 34 16 4 -5 5 -13 2 -19z m-90 -12 c10 -17 -13 -36 -27 -22
-12 12 -4 33 11 33 5 0 12 -5 16 -11z m-259 -245 c8 -21 -13 -42 -28 -27 -13
13 -5 43 11 43 6 0 13 -7 17 -16z m83 -144 c0 -14 -59 -42 -72 -34 -6 4 3 14
23 25 39 21 49 23 49 9z m-125 -20 c0 -7 -6 -15 -12 -17 -8 -3 -13 4 -13 17 0
13 5 20 13 18 6 -3 12 -11 12 -18z m-90 -80 c0 -8 -8 -16 -17 -18 -13 -2 -18
3 -18 18 0 15 5 20 18 18 9 -2 17 -10 17 -18z"/>
<path d="M860 2020 c0 -5 5 -10 11 -10 5 0 7 5 4 10 -3 6 -8 10 -11 10 -2 0
-4 -4 -4 -10z"/>
<path d="M0 2246 l0 -108 90 90 c50 50 90 98 90 106 0 12 -19 15 -90 18 l-90
3 0 -109z"/>
<path d="M230 2350 c0 -6 -45 -53 -100 -106 -55 -53 -102 -105 -105 -115 -4
-11 -11 -17 -16 -14 -5 4 -9 -3 -9 -14 0 -12 4 -21 10 -21 5 0 70 61 142 136
73 74 135 137 137 140 2 2 -10 4 -27 4 -18 0 -32 -5 -32 -10z"/>
<path d="M296 2342 c-8 -23 -269 -282 -284 -282 -8 0 -12 -20 -12 -57 l1 -58
24 28 c14 16 22 33 19 39 -3 5 13 30 37 54 40 41 47 44 94 44 49 0 53 2 115
65 51 52 64 71 62 91 -3 19 6 34 35 59 l38 34 -62 1 c-51 0 -63 -3 -67 -18z
m42 -69 c-4 -22 -22 -20 -26 1 -2 10 3 16 13 16 10 0 15 -7 13 -17z"/>
<path d="M402 2321 c-27 -33 -29 -41 -17 -51 8 -7 12 -16 9 -21 -14 -24 16 -4
54 34 50 51 55 77 14 77 -21 0 -37 -10 -60 -39z"/>
<path d="M570 2316 c0 -43 1 -45 33 -49 l32 -3 -32 -8 c-28 -7 -33 -13 -33
-38 0 -25 -23 -54 -137 -172 -76 -77 -142 -144 -148 -148 -5 -4 -33 -8 -62 -8
-50 0 -54 -2 -137 -77 l-85 -78 0 -119 -1 -120 30 29 c33 32 40 74 15 95 -22
18 -20 109 3 126 44 34 77 5 73 -64 -1 -31 -8 -52 -20 -62 -10 -8 -21 -31 -25
-50 -4 -24 -17 -44 -41 -63 -43 -34 -49 -86 -12 -112 21 -15 24 -14 60 25 48
51 58 52 17 0 -17 -22 -29 -44 -26 -48 9 -16 -32 -45 -54 -39 -32 8 -21 -23
15 -44 26 -14 53 -16 212 -10 l182 6 51 50 c46 45 48 50 30 57 -11 4 -20 11
-20 16 0 4 23 34 51 65 50 56 51 58 35 82 -18 28 -31 31 -43 12 -4 -7 -43 -45
-85 -85 l-77 -72 -55 3 -55 2 -56 -62 c-31 -35 -63 -63 -72 -63 -25 0 -10 23
53 83 60 56 61 57 121 57 50 0 65 4 87 25 14 13 26 31 26 40 0 9 21 39 48 67
l47 50 0 99 c0 83 -2 98 -15 95 -8 -3 -69 -6 -135 -8 l-120 -3 -27 -34 c-27
-32 -27 -35 -26 -162 l2 -130 -49 -49 c-27 -27 -51 -48 -53 -45 -2 2 16 28 41
59 l44 55 1 127 1 127 30 31 c17 18 31 39 31 48 0 20 23 29 41 16 11 -7 11
-11 2 -15 -7 -2 -13 -9 -13 -15 0 -7 4 -7 13 0 7 6 60 13 118 14 l104 3 3 35
c4 44 27 70 61 70 19 0 44 17 89 63 l62 63 0 152 0 152 -75 0 -75 0 0 -44z
m-147 -578 c10 -37 -29 -88 -68 -88 -23 0 -35 17 -35 51 0 23 42 52 64 43 9
-3 16 -1 16 5 0 20 17 12 23 -11z m-118 -118 c11 -17 -5 -32 -21 -19 -7 6 -11
15 -8 20 7 12 21 11 29 -1z m105 -86 c0 -9 -5 -14 -12 -12 -18 6 -21 28 -4 28
9 0 16 -7 16 -16z"/>
<path d="M338 1705 c-17 -38 2 -54 37 -31 31 20 29 50 -3 54 -16 2 -25 -4 -34
-23z"/>
<path d="M1346 2352 c-3 -5 17 -34 45 -65 l51 -57 117 0 c105 0 120 2 136 20
17 19 16 19 -126 22 -120 3 -144 5 -144 18 0 12 23 15 138 18 l137 3 0 24 c0
24 -3 25 -54 25 -39 0 -55 -4 -60 -15 -3 -9 -18 -15 -36 -15 -18 0 -33 6 -36
15 -5 12 -24 15 -84 15 -44 0 -81 -4 -84 -8z"/>
<path d="M2266 2345 c-11 -8 -15 -15 -9 -15 6 0 16 7 23 15 16 19 11 19 -14 0z"/>
<path d="M2430 2334 c-11 -13 -2 -26 62 -89 l76 -74 210 -3 c198 -3 211 -2
216 15 11 42 -1 47 -114 47 -83 0 -110 -3 -120 -15 -9 -11 -33 -15 -90 -15
l-78 0 -67 75 c-37 41 -71 75 -75 75 -4 0 -13 -7 -20 -16z"/>
<path d="M451 2266 c-18 -19 -48 -40 -65 -47 -17 -7 -59 -39 -94 -73 -57 -55
-67 -61 -105 -61 -35 0 -41 -3 -39 -18 4 -25 -25 -67 -46 -67 -10 0 -23 5 -30
12 -9 9 -12 8 -12 -5 0 -9 -13 -29 -30 -44 -23 -20 -30 -35 -30 -62 l0 -35 53
52 c43 43 60 53 99 58 40 6 47 4 52 -13 4 -12 17 -20 36 -21 26 -2 44 12 145
115 63 64 115 119 115 121 0 2 -35 -27 -78 -64 -74 -66 -100 -86 -131 -101
-40 -18 -70 56 -31 77 18 10 26 8 46 -11 l24 -23 60 59 c57 57 105 139 98 171
-2 11 -13 5 -37 -20z m-212 -263 c19 -18 30 -33 25 -33 -6 0 -32 23 -59 52
-50 53 -31 41 34 -19z"/>
<path d="M2386 2285 c-12 -9 -42 -15 -73 -15 -45 0 -55 -4 -69 -25 -13 -20
-14 -28 -4 -40 14 -17 28 -11 40 19 6 15 9 16 9 5 1 -9 -6 -22 -14 -29 -8 -7
-12 -16 -9 -21 3 -5 0 -9 -5 -9 -6 0 -11 4 -11 9 0 5 -7 11 -15 15 -10 3 -28
-9 -51 -34 -20 -22 -40 -37 -45 -34 -5 3 12 25 38 49 40 36 45 44 30 50 -27
11 -60 -1 -118 -46 l-54 -41 57 55 c53 51 60 55 95 50 28 -4 43 -1 52 11 12
14 6 16 -60 16 -73 0 -75 -1 -129 -45 -64 -52 -69 -61 -41 -70 12 -3 24 -18
27 -32 l7 -25 46 44 c83 79 98 83 19 5 -42 -42 -82 -85 -87 -96 -17 -31 -13
-81 9 -108 11 -14 20 -32 20 -40 0 -17 88 -113 104 -113 7 0 38 -27 69 -60
l57 -60 61 0 c38 0 58 -4 54 -10 -3 -5 -30 -10 -58 -10 -48 0 -56 4 -98 45
-26 24 -49 42 -52 39 -10 -11 -148 118 -168 158 -11 22 -34 52 -50 65 -19 16
-29 34 -29 52 0 16 -10 37 -23 49 -22 21 -32 22 -209 22 l-185 0 -47 -37 c-45
-35 -54 -38 -134 -43 -48 -3 -95 -10 -104 -15 -23 -14 -487 -458 -491 -470 -1
-5 -1 -56 1 -112 4 -101 4 -103 28 -103 19 0 24 5 24 25 0 15 11 36 26 50 25
23 26 27 19 98 l-7 75 37 41 37 41 118 0 117 0 118 111 c110 104 150 127 150
89 0 -10 -10 -15 -26 -15 -20 0 -52 -24 -127 -97 l-101 -98 -116 0 -117 0 -34
-34 c-33 -33 -34 -37 -34 -113 0 -78 0 -79 30 -90 42 -16 57 -59 32 -92 -10
-15 -29 -27 -41 -29 -20 -3 -21 -9 -21 -101 0 -146 -8 -141 239 -141 179 0
199 -2 214 -18 10 -10 17 -25 17 -33 -1 -9 -7 -7 -19 9 -19 21 -24 22 -216 22
-195 0 -196 0 -220 25 -24 23 -25 31 -25 136 0 97 -2 110 -16 105 -9 -3 -31
-6 -50 -6 l-34 0 0 -109 0 -109 37 -49 38 -48 5 -280 c3 -154 2 -284 -2 -289
-4 -6 -8 -27 -8 -48 l0 -38 58 0 c56 0 58 1 116 58 l59 57 -5 202 c-4 136 -2
205 5 212 21 21 66 12 84 -15 15 -24 15 -28 0 -57 -14 -27 -17 -57 -15 -182 3
-173 8 -161 -97 -253 l-69 -62 -68 0 c-39 0 -68 -4 -68 -10 0 -6 29 -10 68
-10 l67 -1 65 -71 c60 -66 65 -75 63 -115 -2 -49 6 -53 40 -20 13 12 64 62
115 110 l92 88 0 109 c0 99 -2 110 -20 120 -14 7 -20 21 -20 43 0 40 15 57 52
57 26 0 28 3 28 39 0 38 -2 40 -31 39 -35 -1 -55 16 -64 54 -6 22 -1 33 23 58
18 18 41 30 56 30 26 0 26 0 26 88 0 87 -1 89 -36 131 -47 55 -39 62 12 10
l39 -40 5 -339 5 -340 60 70 c41 48 66 69 77 66 21 -5 158 136 158 162 0 10
-32 47 -70 83 -39 36 -82 81 -95 99 l-25 34 0 255 0 256 103 102 c57 56 116
107 131 113 17 6 183 10 447 10 369 0 420 2 426 15 3 9 22 24 42 34 37 20 277
236 294 266 14 26 -1 33 -75 37 -65 3 -68 2 -104 -32 -20 -19 -40 -44 -44 -55
-6 -14 -9 -15 -9 -5 -1 9 21 38 48 64 l50 49 64 -5 c78 -7 117 0 117 18 0 11
-22 14 -104 14 l-104 0 -40 -52 c-48 -62 -192 -207 -192 -193 0 6 56 67 124
138 l123 127 92 0 c74 0 91 3 91 15 0 12 -18 15 -100 15 l-101 0 -147 -138
c-275 -259 -239 -232 -308 -232 -49 0 -65 4 -80 21 -16 18 -28 20 -110 17 -51
-1 -95 0 -99 4 -3 3 -7 16 -9 29 -1 13 -25 48 -54 77 -28 29 -49 58 -46 65 2
7 -22 37 -53 68 -50 48 -62 55 -83 49 l-25 -8 30 -13 c17 -7 50 -34 74 -61
l43 -48 -36 -36 c-34 -34 -56 -38 -56 -9 0 7 12 23 26 34 31 24 26 49 -17 85
-32 27 -86 46 -133 46 -27 0 -81 -46 -134 -114 -19 -24 -49 -20 -68 9 -15 23
-15 27 0 50 12 19 22 24 39 20 17 -5 32 4 62 35 36 36 44 40 90 40 30 0 59 6
71 15 10 8 22 15 25 15 15 1 149 -146 159 -173 13 -39 88 -117 111 -117 10 0
20 -9 24 -19 6 -21 61 -35 112 -30 18 2 41 -5 60 -19 36 -25 136 -32 150 -9 5
6 51 53 103 102 53 50 134 127 182 173 l87 82 110 0 c92 0 111 3 111 15 0 13
-20 15 -121 15 l-122 0 -116 -112 c-64 -62 -141 -134 -172 -160 -52 -45 -60
-48 -112 -48 l-55 0 -106 101 c-58 56 -106 106 -106 112 0 6 49 -37 109 -96
l108 -107 55 0 c42 0 59 5 73 20 18 20 17 20 -47 20 l-64 0 -94 95 c-60 62
-99 94 -108 90 -17 -6 -42 12 -42 30 0 7 7 15 15 19 10 4 36 -17 78 -62 34
-37 83 -88 108 -114 l46 -48 69 0 69 0 122 113 c68 61 130 122 138 135 15 21
23 22 141 22 117 0 124 1 124 20 0 15 -7 20 -29 20 -16 0 -37 -7 -45 -16 -12
-11 -16 -12 -16 -2 0 10 -27 12 -127 10 l-128 -4 -112 -111 c-62 -61 -115
-109 -118 -106 -3 3 46 56 107 117 108 107 115 112 158 113 25 1 61 3 80 4 19
0 79 2 133 3 79 2 97 5 97 17 0 13 -32 15 -226 15 l-225 0 -60 57 c-48 46 -59
52 -59 35 0 -29 -36 -39 -61 -16 -18 16 -20 16 -37 1 -28 -25 -34 -20 -9 7 12
13 28 31 35 40 25 31 59 19 129 -47 l68 -64 223 5 c122 2 222 9 222 13 0 5
-90 9 -200 9 -231 0 -225 -2 -315 89 -33 34 -62 61 -65 61 -3 0 -14 -7 -24
-15z m-171 -155 c-16 -17 -33 -30 -39 -30 -5 0 5 16 24 35 18 19 36 32 39 30
2 -3 -8 -19 -24 -35z m135 -75 c6 -8 9 -23 5 -34 -8 -25 -41 -36 -60 -21 -15
13 -20 51 -8 63 12 12 50 7 63 -8z m-400 -114 c0 -5 -11 -11 -25 -13 -24 -5
-32 2 -18 15 9 10 43 8 43 -2z m-122 -87 c26 -27 28 -31 7 -12 -42 36 -69 48
-107 48 -28 0 -45 -12 -108 -75 -53 -54 -82 -75 -100 -75 -19 0 -59 -33 -158
-129 -132 -127 -133 -129 -111 -144 21 -15 25 -12 127 86 139 134 135 130 233
216 82 72 83 73 19 10 -36 -35 -129 -126 -208 -202 -102 -100 -140 -143 -133
-150 6 -6 11 -49 11 -98 0 -79 2 -90 26 -118 18 -22 35 -31 57 -32 30 -1 31
-1 7 -9 -20 -6 -32 -1 -62 29 l-38 35 0 87 c0 109 -14 127 -60 80 -28 -27 -30
-35 -29 -91 2 -60 14 -86 25 -56 7 18 34 22 34 4 0 -6 -3 -9 -6 -5 -4 3 -14
-3 -24 -15 -28 -35 -40 -14 -40 67 0 68 2 77 30 109 41 46 24 53 -23 10 l-37
-34 0 -144 c0 -122 2 -145 16 -150 30 -12 132 -6 160 9 33 17 94 20 94 5 0 -5
-16 -10 -35 -10 -66 0 -35 -19 38 -23 39 -2 -9 -3 -108 -3 l-180 0 -3 190 c-2
105 -4 191 -6 193 -1 2 -21 -13 -44 -33 -39 -33 -42 -39 -42 -87 0 -52 0 -52
33 -52 29 0 32 -3 32 -30 0 -25 -4 -31 -26 -33 -37 -4 -49 17 -55 95 l-6 68
56 55 c34 33 56 63 56 76 0 13 16 35 43 57 23 19 76 66 117 105 78 74 98 83
121 55 13 -15 12 -15 -9 -4 -28 15 -32 13 -159 -109 l-98 -95 3 -58 4 -59 24
23 c13 12 24 31 24 41 0 9 21 37 48 60 26 23 80 74 120 113 66 65 72 75 72
112 0 42 20 70 41 57 9 -5 6 -10 -9 -15 -13 -5 -22 -17 -22 -29 0 -18 4 -20
43 -14 35 5 54 18 112 76 l70 69 53 -4 c47 -3 58 -9 90 -43z m-584 7 c3 -5
-32 -43 -79 -86 -47 -42 -85 -73 -85 -69 0 9 142 161 152 163 4 0 9 -3 12 -8z
m1685 -17 c-15 -18 -22 -13 -13 10 3 9 10 13 16 10 5 -3 4 -12 -3 -20z m-1141
-27 c2 -10 -4 -29 -13 -43 -12 -19 -19 -22 -34 -14 -25 13 -33 37 -20 61 13
26 62 22 67 -4z m913 -92 c-33 -31 -51 -56 -51 -71 0 -25 -33 -49 -56 -40 -8
3 -14 17 -14 31 0 21 5 25 29 25 21 0 40 13 80 55 28 31 52 61 52 68 1 7 3 5
6 -5 2 -10 -14 -34 -46 -63z m19 -20 c-24 -25 -48 -45 -53 -45 -9 0 83 89 93
90 2 0 -16 -20 -40 -45z m-1080 31 c0 -2 3 -11 6 -19 8 -23 -24 -49 -46 -37
-31 16 -70 -39 -70 -99 0 -39 -5 -52 -30 -76 -17 -16 -30 -39 -30 -52 0 -14
-4 -21 -10 -18 -19 12 -10 41 25 75 29 28 35 41 35 76 0 35 8 51 46 98 26 31
53 56 60 56 8 0 14 -2 14 -4z m191 -17 c23 -44 -34 -97 -58 -54 -7 12 -20 4
-66 -38 -31 -28 -57 -60 -57 -69 0 -10 -4 -18 -10 -18 -26 0 -4 42 48 91 31
30 62 66 69 82 15 34 57 37 74 6z m-428 -18 c-13 -3 -64 -44 -115 -91 -110
-100 -98 -79 17 31 60 58 84 75 100 71 19 -6 19 -6 -2 -11z m667 -101 c0 -5
-2 -10 -4 -10 -3 0 -8 5 -11 10 -3 6 -1 10 4 10 6 0 11 -4 11 -10z m-733 -65
c-1 0 -18 -13 -37 -30 l-35 -30 28 31 c15 16 27 37 27 45 0 12 2 12 10 -1 5
-8 8 -15 7 -15z m-63 -171 c7 -19 2 -18 -19 6 -16 17 -16 20 -3 15 9 -4 19
-13 22 -21z m199 -15 c15 -24 1 -49 -27 -49 -29 0 -44 33 -25 56 15 18 38 15
52 -7z m-58 -199 c3 -5 2 -10 -4 -10 -5 0 -13 5 -16 10 -3 6 -2 10 4 10 5 0
13 -4 16 -10z m-370 -110 c3 -5 -1 -10 -9 -10 -9 0 -16 5 -16 10 0 6 4 10 9
10 6 0 13 -4 16 -10z m-127 -182 c8 -8 12 -45 12 -101 0 -72 3 -92 17 -102 19
-14 9 -38 -15 -33 -13 3 -15 19 -13 109 2 102 1 108 -20 123 -16 11 -19 16 -8
16 8 0 20 -5 27 -12z m341 -252 c19 -23 -14 -28 -35 -5 -16 18 -16 19 3 19 11
0 26 -6 32 -14z m259 -68 c-3 -7 -11 -13 -18 -13 -7 0 -15 6 -17 13 -3 7 4 12
17 12 13 0 20 -5 18 -12z m37 -68 c0 -20 -5 -25 -25 -25 -20 0 -26 6 -28 28
-3 26 -1 28 25 25 22 -2 28 -8 28 -28z m-457 -216 c29 -20 28 -50 -2 -69 -19
-13 -29 -14 -45 -5 -26 14 -29 65 -3 79 23 14 24 14 50 -5z"/>
<path d="M2292 2033 c2 -10 13 -19 26 -21 17 -3 22 2 22 17 0 16 -6 21 -26 21
-19 0 -25 -5 -22 -17z m38 -3 c0 -5 -4 -10 -10 -10 -5 0 -10 5 -10 10 0 6 5
10 10 10 6 0 10 -4 10 -10z"/>
<path d="M1740 1800 c0 -11 5 -20 11 -20 6 0 8 7 5 16 -3 8 -2 12 4 9 6 -3 10
-1 10 4 0 6 -7 11 -15 11 -8 0 -15 -9 -15 -20z"/>
<path d="M2595 1649 c-10 -15 1 -23 20 -15 9 3 13 10 10 16 -8 13 -22 13 -30
-1z"/>
<path d="M1795 1680 c-3 -5 1 -10 9 -10 9 0 16 5 16 10 0 6 -4 10 -9 10 -6 0
-13 -4 -16 -10z"/>
<path d="M1440 1330 c0 -5 5 -10 10 -10 6 0 10 5 10 10 0 6 -4 10 -10 10 -5 0
-10 -4 -10 -10z"/>
<path d="M3273 2267 c-15 -33 -61 -37 -88 -7 -13 15 -31 20 -67 20 l-48 0 0
-55 0 -55 105 0 c118 0 120 2 113 86 l-3 39 -12 -28z"/>
<path d="M520 2218 c-12 -22 -12 -22 6 -6 10 10 15 20 12 24 -4 3 -12 -5 -18
-18z"/>
<path d="M2354 2225 c-14 -35 37 -50 56 -16 12 24 -7 42 -21 20 -6 -10 -9 -11
-9 -1 0 17 -19 15 -26 -3z"/>
<path d="M530 2190 c-8 -5 -12 -12 -9 -15 4 -3 12 1 19 10 14 17 11 19 -10 5z"/>
<path d="M3561 1945 c0 -99 4 -189 9 -200 l9 -20 1 20 c7 77 0 359 -9 368 -8
8 -11 -41 -10 -168z"/>
<path d="M4855 2030 c-16 -11 -46 -20 -65 -20 l-35 0 0 -50 c0 -38 4 -50 17
-54 25 -6 23 -52 -2 -66 -17 -9 -25 -6 -46 15 -23 23 -32 25 -108 25 -64 0
-87 -4 -97 -16 -7 -9 -21 -13 -34 -10 -18 5 -42 -14 -124 -97 -101 -101 -101
-102 -101 -152 -1 -27 -6 -70 -11 -95 -6 -25 -11 -76 -12 -115 0 -52 -1 -58
-4 -22 -3 32 -8 47 -19 47 -11 0 -14 -18 -14 -87 l0 -87 58 57 58 57 196 0
c190 0 198 1 208 21 7 11 14 18 17 15 3 -3 -2 -17 -11 -31 l-16 -25 -197 0
-197 0 -90 -93 c-50 -51 -124 -121 -163 -156 -63 -54 -73 -68 -73 -96 0 -34
-10 -44 -238 -260 l-72 -69 1 -79 1 -79 77 76 76 76 122 0 c129 0 153 4 153
26 0 7 11 21 24 29 20 13 29 14 46 5 12 -6 20 -19 18 -28 -4 -22 -64 -51 -105
-52 -17 0 -35 -5 -39 -11 -4 -7 -9 -7 -13 -1 -4 5 -48 7 -113 3 l-108 -6 -75
-75 -75 -74 0 -149 0 -149 80 -79 c44 -44 80 -84 80 -89 0 -8 99 -16 100 -7 0
1 3 92 7 203 4 146 3 203 -6 208 -6 4 -11 17 -10 29 0 21 1 21 10 2 7 -16 8
-14 5 12 -5 27 2 40 48 91 39 44 57 57 65 49 8 -8 15 -6 26 9 9 12 14 14 15 5
0 -7 -31 -46 -70 -85 -38 -40 -70 -79 -70 -86 0 -17 91 71 127 122 25 36 28
38 82 38 75 0 106 30 113 108 l5 52 -78 0 c-53 0 -79 4 -79 12 0 8 30 9 108 5
70 -4 112 -3 119 4 13 13 -3 86 -24 111 -8 9 -13 25 -10 35 4 17 5 17 6 0 1
-15 9 -18 58 -15 55 3 58 4 65 33 6 26 6 25 5 -10 l-2 -40 -48 -3 -48 -3 7
-32 c4 -18 8 -45 8 -62 1 -27 -2 -30 -34 -33 -42 -4 -50 -15 -50 -69 0 -33 -7
-50 -31 -78 -28 -32 -36 -35 -83 -35 l-52 0 -83 -90 -82 -90 7 -125 c4 -69 11
-128 16 -131 5 -3 4 -11 -2 -19 -6 -7 -8 -25 -4 -39 5 -22 9 -24 21 -14 8 6
21 24 29 39 7 15 71 80 140 144 115 106 130 116 156 111 27 -5 40 4 144 102
63 59 114 110 114 115 0 4 -34 7 -75 7 -106 0 -136 -18 -292 -173 -104 -103
-133 -138 -133 -158 0 -34 -25 -57 -48 -42 -33 20 -26 49 20 81 24 17 97 85
163 152 66 67 141 137 166 156 l47 34 210 0 c176 0 211 2 216 15 3 8 12 12 21
9 10 -4 15 0 15 10 0 9 -8 16 -19 16 -31 0 -45 75 -16 86 11 5 15 24 15 79 0
41 -4 77 -10 80 -5 3 -10 25 -10 49 0 56 -22 76 -82 76 -39 0 -49 5 -82 40
l-37 40 -114 0 -115 0 0 -27 c0 -19 -3 -24 -11 -16 -6 6 -9 21 -7 34 3 24 5
24 131 27 l127 3 35 -36 c34 -34 38 -35 110 -35 68 0 75 -2 94 -26 19 -24 21
-40 21 -155 0 -74 4 -130 10 -134 6 -3 10 -26 10 -51 0 -40 2 -44 25 -44 22 0
25 3 19 25 -9 36 4 93 27 116 13 13 33 19 64 19 25 0 45 3 45 7 0 4 -32 40
-72 80 -67 67 -72 76 -74 118 -3 85 9 110 85 181 l71 66 0 66 0 67 -51 -52
c-46 -48 -69 -64 -69 -47 0 3 27 32 60 64 l60 58 -6 74 c-3 40 -7 87 -8 104
-1 16 -12 40 -24 52 -12 12 -22 27 -22 32 0 19 32 60 46 60 8 0 14 11 14 26 0
25 -6 21 -80 -50 -73 -69 -82 -75 -100 -64 -21 13 -21 13 2 16 13 2 58 38 101
80 64 63 77 82 77 108 0 53 -62 61 -107 15 -34 -36 -83 -52 -83 -27 0 11 9 16
30 16 20 0 35 8 46 25 14 21 24 25 65 25 27 0 49 5 49 10 0 16 -96 12 -110 -5
-7 -8 -27 -15 -46 -15 -28 0 -36 -5 -49 -33 -9 -19 -41 -55 -71 -81 l-55 -48
-164 3 c-105 3 -168 8 -175 15 -9 9 31 10 159 6 l170 -5 46 37 c25 21 52 52
59 71 16 37 51 65 83 65 12 0 25 5 28 10 3 6 33 10 66 10 59 0 59 0 59 30 l0
30 -104 0 c-57 0 -110 2 -118 5 -7 3 -26 -4 -43 -15z m-307 -202 c-7 -20 -68
-23 -68 -4 0 12 10 16 36 16 24 0 34 -4 32 -12z m321 -62 c7 -8 9 -31 5 -60
-7 -46 1 -57 23 -35 13 13 33 4 33 -15 0 -7 -20 -26 -45 -44 -45 -31 -45 -32
-45 -90 0 -53 -3 -61 -34 -91 -28 -28 -39 -32 -64 -26 -18 3 -33 2 -37 -4 -9
-15 -351 -15 -361 0 -3 6 -18 9 -32 6 -34 -6 -50 0 -64 27 -11 20 -10 20 9 4
11 -10 35 -18 55 -18 19 0 38 -3 42 -7 4 -5 80 -6 169 -5 l162 4 43 48 c23 27
52 50 65 52 17 2 22 10 23 36 1 17 9 41 19 52 10 11 16 22 14 24 -10 9 -119
14 -124 5 -4 -5 -11 -9 -17 -9 -7 0 0 12 14 28 14 15 28 34 31 43 3 9 14 19
25 21 19 5 19 4 4 -23 -21 -35 -13 -43 37 -34 34 6 41 11 41 29 0 14 -10 28
-24 36 -23 12 -24 14 -9 36 18 27 26 29 42 10z m-331 -25 c19 -12 11 -55 -11
-59 -10 -2 -26 3 -36 12 -17 15 -22 12 -74 -43 -32 -33 -57 -64 -57 -70 0 -6
-4 -11 -10 -11 -26 0 -3 34 70 104 79 76 93 83 118 67z m192 -35 c0 -8 -5 -18
-11 -22 -14 -8 -33 11 -25 25 10 16 36 13 36 -3z m-103 -22 c-9 -9 -28 6 -21
18 4 6 10 6 17 -1 6 -6 8 -13 4 -17z m328 -118 c-1 -51 -6 -99 -10 -107 -5 -7
-8 -43 -7 -80 3 -86 -12 -99 -107 -99 -64 0 -101 -16 -101 -44 0 -7 -24 -10
-71 -8 -63 3 -71 6 -81 28 -11 23 -14 24 -129 24 -117 0 -117 0 -161 -33 -43
-33 -43 -33 -48 -107 -6 -86 -15 -102 -109 -195 -34 -33 -61 -67 -61 -77 0
-10 -4 -18 -10 -18 -25 0 -4 39 58 109 98 110 102 116 102 187 l0 62 52 46 53
46 127 0 c84 0 128 4 128 11 0 6 10 9 23 7 16 -2 23 -11 25 -32 3 -23 0 -28
-12 -23 -10 4 -16 1 -16 -8 0 -25 109 -8 141 21 22 21 35 24 97 24 86 0 89 4
75 90 -8 52 -7 64 9 87 14 21 18 44 17 94 -2 57 4 89 15 89 2 0 2 -42 1 -94z
m-287 38 c27 -19 28 -40 2 -54 -40 -22 -80 26 -48 58 15 15 19 15 46 -4z m-60
-82 c4 -26 -22 -40 -43 -22 -11 9 -12 17 -4 32 13 25 43 19 47 -10z m-212 -3
c24 -27 8 -54 -32 -54 -23 0 -30 5 -32 23 -4 25 13 52 33 52 6 0 20 -9 31 -21z
m99 -19 c4 -7 13 -6 26 1 25 13 60 -8 37 -22 -7 -5 -21 -6 -30 -3 -10 3 -18 1
-18 -5 0 -6 -5 -11 -12 -11 -14 0 -48 30 -48 42 0 11 38 10 45 -2z m314 -268
c15 -28 -13 -62 -49 -62 -16 0 -31 4 -34 9 -3 4 -70 6 -148 3 -101 -3 -140 -1
-133 6 14 16 281 18 300 2 17 -14 55 3 55 25 0 20 -17 19 -29 -2 -7 -14 -12
-15 -22 -6 -6 6 -9 19 -6 27 9 22 54 20 66 -2z m-619 -80 c0 -29 -61 -112 -83
-112 -6 0 8 19 31 43 23 23 42 51 42 62 0 17 -2 17 -25 -5 -13 -12 -36 -40
-51 -61 -15 -22 -33 -39 -40 -39 -19 0 -18 19 2 27 8 3 38 30 66 59 28 30 52
54 54 54 2 0 4 -13 4 -28z m441 -145 c-14 -14 -18 4 -13 53 l6 45 8 -45 c4
-24 4 -48 -1 -53z m-227 30 c25 -18 10 -44 -31 -52 -42 -8 -55 1 -29 21 14 10
17 17 9 25 -8 8 -17 4 -33 -13 -21 -21 -19 -9 3 20 12 16 58 16 81 -1z m-353
-124 c-231 -239 -354 -363 -359 -359 -2 2 39 49 91 103 308 318 372 383 381
383 5 0 -45 -57 -113 -127z m503 13 c-15 -12 -17 -17 -6 -27 10 -11 12 -10 12
5 0 10 5 14 11 10 6 -3 15 -1 19 6 6 10 16 6 41 -13 19 -14 43 -27 53 -28 17
-4 17 -6 4 -17 -12 -10 -20 -8 -42 9 -18 14 -31 18 -39 12 -21 -17 -71 -10
-75 10 -5 27 5 47 25 47 15 0 15 -2 -3 -14z m-667 -124 c-26 -26 -47 -53 -47
-60 0 -13 -13 -16 -23 -5 -6 5 100 111 113 113 2 0 -17 -22 -43 -48z m888 20
c0 -18 -20 -15 -23 4 -3 10 1 15 10 12 7 -3 13 -10 13 -16z m-765 -38 c0 -8
-32 -33 -42 -34 -16 0 -7 29 10 33 27 7 32 7 32 1z m618 -3 c21 -13 11 -55
-14 -59 -30 -4 -48 21 -34 47 11 22 27 26 48 12z m192 -31 c0 -5 -18 -10 -40
-10 -22 0 -40 5 -40 10 0 6 18 10 40 10 22 0 40 -4 40 -10z m-380 -15 c0 -8
-6 -15 -14 -15 -17 0 -28 14 -19 24 12 12 33 6 33 -9z m-664 -410 c8 -21 -22
-65 -45 -65 -29 0 -34 30 -10 57 26 26 47 30 55 8z"/>
<path d="M4605 1290 c3 -5 8 -10 11 -10 2 0 4 5 4 10 0 6 -5 10 -11 10 -5 0
-7 -4 -4 -10z"/>
<path d="M4355 1490 c4 -6 11 -8 16 -5 14 9 11 15 -7 15 -8 0 -12 -5 -9 -10z"/>
<path d="M4377 1024 c6 -15 23 -19 23 -5 0 5 -7 11 -14 14 -10 4 -13 1 -9 -9z"/>
<path d="M4600 749 c0 -5 5 -7 10 -4 6 3 10 8 10 11 0 2 -4 4 -10 4 -5 0 -10
-5 -10 -11z"/>
<path d="M3660 1987 c0 -51 7 -56 39 -29 l22 17 -30 29 -31 30 0 -47z"/>
<path d="M3592 1980 c0 -19 2 -27 5 -17 2 9 2 25 0 35 -3 9 -5 1 -5 -18z"/>
<path d="M3070 1958 c0 -36 4 -48 15 -48 19 0 19 30 0 66 l-15 29 0 -47z"/>
<path d="M640 1950 c-39 -33 -34 -39 11 -13 16 10 29 23 29 30 0 17 1 17 -40
-17z"/>
<path d="M1777 1974 c-11 -11 3 -24 24 -24 12 0 19 5 17 13 -5 14 -31 21 -41
11z"/>
<path d="M2090 1961 c0 -5 7 -11 15 -15 9 -3 15 0 15 9 0 8 -7 15 -15 15 -8 0
-15 -4 -15 -9z"/>
<path d="M1611 1920 c-35 -33 -40 -41 -26 -46 11 -5 28 5 54 30 32 31 44 36
86 37 l50 1 -40 9 c-66 13 -78 10 -124 -31z"/>
<path d="M3720 1953 c0 -5 -14 -17 -30 -28 -31 -21 -41 -55 -16 -55 8 0 22 7
30 16 9 9 16 11 16 4 0 -6 -13 -19 -30 -28 -28 -16 -30 -20 -30 -80 l0 -64 40
32 40 32 0 89 c0 53 -4 89 -10 89 -5 0 -10 -3 -10 -7z"/>
<path d="M53 1883 c-39 -41 -53 -64 -53 -86 l0 -28 28 21 c33 27 152 140 152
146 0 2 -17 4 -37 4 -32 0 -44 -7 -90 -57z"/>
<path d="M2967 1860 c6 -22 -5 -34 -192 -208 -98 -91 -106 -101 -75 -92 24 6
57 33 106 85 62 67 95 90 94 68 -1 -14 -27 -43 -38 -43 -5 0 -39 -28 -74 -63
-54 -55 -59 -63 -36 -58 15 3 75 52 137 109 l111 104 0 59 c0 51 -2 59 -19 59
-14 0 -18 -5 -14 -20z"/>
<path d="M2165 1760 c10 -11 20 -20 22 -20 2 0 -1 9 -7 20 -6 11 -16 20 -22
20 -6 0 -3 -9 7 -20z"/>
<path d="M3760 1710 c0 -49 4 -69 12 -67 6 1 14 -6 16 -15 2 -11 -2 -18 -12
-18 -13 0 -16 -15 -16 -89 l0 -90 -49 -58 c-27 -32 -75 -84 -108 -116 -53 -52
-59 -61 -55 -92 4 -30 6 -33 19 -20 19 19 48 19 67 -1 21 -21 20 -47 -2 -67
-23 -21 -46 -22 -62 -2 -25 30 -30 13 -30 -91 l0 -105 -140 -150 -140 -151 0
-119 0 -119 36 0 c30 0 48 10 100 56 l64 56 0 61 c0 48 -4 65 -21 83 -42 45 7
109 52 68 25 -22 24 -60 -1 -76 -15 -10 -20 -24 -20 -60 0 -27 3 -48 6 -48 17
0 94 75 105 103 7 18 19 40 27 49 13 16 18 39 21 106 1 13 31 54 76 100 l75
79 6 140 c5 101 4 142 -5 147 -6 4 -11 1 -11 -8 0 -9 -4 -16 -10 -16 -25 0 -4
41 55 105 52 56 66 79 71 113 7 47 20 54 34 17 13 -33 22 -32 18 3 -3 23 1 27
25 30 32 4 67 -21 67 -48 0 -37 -55 -62 -89 -41 -11 7 -19 1 -32 -27 -9 -20
-37 -57 -63 -82 l-46 -44 0 -143 c0 -83 4 -143 9 -143 19 0 41 45 41 82 0 21
5 38 11 38 17 0 1 -67 -26 -115 -13 -22 -47 -62 -75 -90 -52 -50 -80 -93 -80
-117 1 -13 11 -3 168 171 76 84 103 131 68 118 -25 -10 -26 5 -1 25 23 18 25
25 25 113 0 89 1 95 26 114 17 14 41 21 68 21 63 0 92 35 101 122 l7 66 -103
109 c-100 103 -106 108 -153 113 -40 5 -54 12 -87 47 l-39 42 0 -69z m-132
-747 c5 -17 -26 -29 -40 -15 -6 6 -7 15 -3 22 9 14 37 9 43 -7z"/>
<path d="M3702 1727 c-38 -39 -44 -50 -49 -103 -6 -66 -25 -103 -77 -153 l-36
-35 0 -105 0 -105 75 74 c119 118 128 135 123 225 -2 41 0 76 5 78 4 1 7 40 5
85 l-3 83 -43 -44z m-54 -275 c2 -7 -3 -12 -12 -12 -9 0 -16 7 -16 16 0 17 22
14 28 -4z"/>
<path d="M2870 1699 c0 -5 5 -7 10 -4 6 3 10 8 10 11 0 2 -4 4 -10 4 -5 0 -10
-5 -10 -11z"/>
<path d="M2050 1680 c0 -11 5 -20 10 -20 6 0 10 9 10 20 0 11 -4 20 -10 20 -5
0 -10 -9 -10 -20z"/>
<path d="M3505 1635 c-16 -17 -50 -47 -74 -68 l-45 -37 50 0 c42 0 55 5 78 29
22 23 27 36 24 67 l-3 39 -30 -30z"/>
<path d="M3573 1663 c-8 -3 -13 -23 -13 -52 0 -40 -5 -53 -35 -85 l-35 -38
-87 2 c-150 5 -143 7 -143 -46 l0 -47 41 47 c23 26 44 44 47 41 3 -3 -14 -25
-38 -50 l-43 -44 28 -41 29 -41 113 113 c63 62 123 127 134 145 22 36 23 103
2 96z"/>
<path d="M3290 1630 c0 -5 5 -10 10 -10 6 0 10 5 10 10 0 6 -4 10 -10 10 -5 0
-10 -4 -10 -10z"/>
<path d="M3166 1484 c-17 -43 -6 -73 39 -111 l45 -37 0 -151 0 -150 -97 -92
c-92 -86 -97 -92 -81 -108 16 -17 22 -13 107 65 50 46 93 92 97 103 3 10 4 78
1 150 -2 73 -2 115 0 95 6 -56 23 -46 23 13 0 40 -5 58 -25 81 -20 23 -25 41
-25 82 0 50 -1 52 -33 64 -42 15 -44 15 -51 -4z"/>
<path d="M1765 1458 c-11 -6 -59 -49 -107 -97 l-88 -86 0 -240 0 -240 87 -88
86 -88 34 33 c18 17 33 38 33 46 0 8 -44 59 -97 113 -53 55 -91 99 -85 99 15
0 16 96 2 105 -12 7 -4 25 11 25 5 0 9 -26 9 -57 l0 -57 85 -87 85 -86 0 181
0 181 66 58 c59 52 70 57 111 57 42 0 49 -4 92 -52 25 -28 60 -68 77 -87 l31
-35 27 21 26 21 -24 29 c-14 17 -41 41 -60 54 -41 27 -47 43 -13 34 20 -5 20
-5 4 6 -14 8 -22 8 -30 0 -13 -13 -51 -15 -42 -2 8 14 61 24 85 16 11 -3 20
-14 20 -23 1 -9 18 -36 39 -60 37 -42 37 -43 55 -23 21 23 25 16 -69 130 -35
42 -56 59 -68 57 -26 -6 -57 28 -50 53 7 26 48 38 69 20 25 -20 38 -50 25 -58
-12 -8 117 -168 132 -163 15 5 204 181 220 205 8 12 17 39 21 60 l7 37 -393 0
c-265 -1 -400 -4 -413 -12z m189 -54 c19 -18 19 -20 6 -45 -17 -31 -70 -18
-70 17 0 14 27 44 40 44 5 0 16 -7 24 -16z m396 -10 c10 -11 11 -23 4 -42 -7
-21 -16 -27 -39 -27 -23 0 -32 6 -39 27 -11 33 6 58 39 58 12 0 28 -7 35 -16z"/>
<path d="M1917 1394 c-14 -14 -7 -35 11 -32 9 2 17 10 17 17 0 16 -18 25 -28
15z"/>
<path d="M2284 1386 c-7 -19 13 -56 31 -56 18 0 38 37 31 56 -3 8 -17 14 -31
14 -14 0 -28 -6 -31 -14z m46 -12 c0 -8 -5 -12 -10 -9 -6 4 -8 11 -5 16 9 14
15 11 15 -7z"/>
<path d="M3446 1348 l-76 -73 -2 -196 c-2 -192 -3 -196 -25 -206 -21 -10 -22
-9 -19 20 9 75 9 75 -210 -134 -90 -86 -91 -87 -91 -135 0 -27 -4 -72 -8 -101
-4 -29 -4 -83 1 -120 l8 -68 8 130 c11 197 13 204 49 239 l32 31 -28 -37 c-18
-26 -23 -38 -14 -38 11 0 11 -2 1 -8 -15 -10 -31 -130 -32 -234 l0 -78 30 0
30 0 0 129 0 129 78 73 c42 41 130 126 195 189 l117 116 0 56 c0 37 -5 60 -15
68 -32 27 -7 110 33 110 7 0 12 37 14 105 2 58 2 105 1 105 -1 0 -36 -33 -77
-72z"/>
<path d="M640 1391 c-23 -18 -24 -25 -21 -94 2 -67 0 -76 -23 -104 -21 -25
-26 -41 -26 -85 0 -47 -4 -58 -30 -83 -29 -28 -30 -31 -30 -123 0 -70 3 -93
13 -90 7 3 14 30 17 67 5 62 5 62 78 133 l72 71 -2 160 c-2 96 -7 162 -13 163
-5 2 -21 -5 -35 -15z"/>
<path d="M535 1303 c-106 -97 -93 -93 -316 -93 -193 0 -196 0 -207 23 -8 16
-11 -34 -11 -203 l-1 -224 43 42 c42 41 44 42 111 42 50 0 67 -3 64 -12 -3 -8
-29 -14 -70 -16 -62 -3 -67 -5 -106 -46 -31 -32 -42 -52 -42 -75 0 -30 1 -31
48 -31 45 0 51 -3 105 -58 l57 -58 0 -79 0 -79 35 34 c31 30 34 36 20 46 -22
16 -19 26 6 19 20 -7 21 -5 15 25 -3 18 -6 41 -6 52 0 10 -5 16 -10 13 -18
-11 -50 6 -50 26 0 14 7 19 25 19 14 0 25 -5 25 -12 0 -6 11 -1 25 12 14 13
25 30 25 38 0 8 16 30 35 49 34 34 35 37 35 112 0 72 -2 79 -28 104 -16 15
-31 25 -34 21 -4 -3 -14 6 -24 20 -13 21 -14 32 -6 49 10 21 11 21 11 -7 1
-20 5 -27 15 -23 8 3 17 1 19 -6 3 -7 8 -5 12 7 13 30 -8 51 -54 54 l-41 3 0
-69 c0 -56 4 -72 20 -87 25 -23 27 -58 3 -53 -10 2 -18 10 -18 18 0 8 -3 17
-7 20 -4 3 -8 46 -9 95 l-2 90 43 3 c33 3 48 -2 66 -19 13 -12 24 -28 24 -34
0 -6 11 -22 25 -35 24 -22 25 -29 25 -133 0 -83 3 -107 13 -103 6 3 20 9 30
12 17 6 18 17 15 111 l-3 105 33 29 c28 25 32 35 32 81 0 42 5 57 25 79 23 23
26 33 23 91 l-3 66 -60 -55z m-320 -203 c4 -6 -13 -10 -44 -10 -28 0 -51 5
-51 10 0 6 20 10 44 10 25 0 48 -4 51 -10z m-135 -95 c18 -22 3 -55 -25 -55
-31 0 -52 35 -34 56 15 18 43 18 59 -1z m26 -217 c-1 -23 4 -33 17 -36 14 -3
17 4 18 35 l2 38 7 -45 c8 -49 4 -68 -12 -52 -6 6 -16 8 -23 6 -15 -6 -40 59
-30 76 12 20 23 9 21 -22z"/>
<path d="M3846 1290 c-57 -61 -61 -78 -5 -25 37 36 66 75 56 75 -2 0 -25 -22
-51 -50z"/>
<path d="M4112 1286 c-10 -13 -35 -31 -55 -39 -49 -21 -69 -62 -65 -135 l3
-57 73 70 72 71 0 57 c0 31 -2 57 -4 57 -3 0 -13 -11 -24 -24z"/>
<path d="M5057 1197 c-54 -64 -54 -66 -50 -118 5 -49 10 -59 59 -109 l54 -55
0 132 c0 107 -3 132 -15 137 -20 7 -19 43 2 55 10 5 15 12 12 16 -4 3 -31 -23
-62 -58z"/>
<path d="M1912 1172 l-42 -37 0 -193 c0 -180 1 -192 18 -183 26 14 292 271
292 283 0 5 -32 45 -72 89 -67 74 -74 79 -112 79 -33 -1 -50 -8 -84 -38z"/>
<path d="M1836 1112 c-7 -12 -10 -392 -2 -399 12 -12 16 28 18 215 3 174 0
209 -16 184z"/>
<path d="M3510 1026 l0 -54 -200 -194 -200 -194 0 -122 0 -122 60 0 60 0 0
115 0 115 42 48 c24 26 91 99 150 163 l108 117 0 91 c0 54 -4 91 -10 91 -5 0
-10 -24 -10 -54z m-120 -245 c0 -5 -6 -14 -14 -20 -16 -13 -32 2 -21 19 8 12
35 13 35 1z"/>
<path d="M622 987 l-62 -63 2 -62 c3 -57 5 -62 26 -62 20 0 22 5 22 51 0 48 3
55 47 98 44 43 55 72 34 93 -4 4 -35 -20 -69 -55z"/>
<path d="M672 945 c-23 -21 -42 -43 -42 -51 0 -24 23 -64 37 -64 7 0 13 -4 13
-10 0 -14 -28 -12 -33 3 -2 6 -8 9 -12 5 -4 -4 -2 -14 4 -22 17 -20 5 -53 -21
-59 -14 -4 -29 3 -48 21 -30 30 -60 31 -60 0 0 -11 -5 -18 -12 -15 -7 2 -12
11 -12 20 1 14 -3 13 -27 -6 l-28 -22 0 -168 -1 -168 -51 -55 -52 -54 162 0
161 0 0 38 c0 29 -7 45 -30 67 -53 50 -44 77 60 180 l90 90 0 122 c0 120 -1
123 -28 154 l-27 31 -43 -37z m-79 -531 c11 -11 -5 -34 -23 -34 -22 0 -34 15
-25 30 7 11 38 14 48 4z m-113 -79 c0 -19 -20 -29 -32 -17 -8 8 -7 16 2 26 14
17 30 12 30 -9z"/>
<path d="M455 330 c3 -5 8 -10 11 -10 2 0 4 5 4 10 0 6 -5 10 -11 10 -5 0 -7
-4 -4 -10z"/>
<path d="M1705 842 c38 -40 71 -72 73 -72 10 0 -50 67 -92 102 -45 36 -43 33
19 -30z"/>
<path d="M2968 764 c-40 -36 -87 -81 -103 -99 -17 -18 -42 -35 -55 -37 -17 -2
-105 -84 -273 -254 l-249 -252 -5 -61 c-4 -42 -2 -61 6 -61 6 0 11 18 11 46 0
44 4 50 78 126 82 85 293 279 453 416 111 95 234 228 219 237 -5 3 -42 -24
-82 -61z"/>
<path d="M5050 745 l0 -65 35 0 35 0 0 65 0 65 -35 0 -35 0 0 -65z"/>
<path d="M3015 750 c-10 -11 -14 -20 -8 -20 5 0 18 9 28 20 10 11 14 20 8 20
-5 0 -18 -9 -28 -20z"/>
<path d="M342 687 c-30 -31 -32 -37 -32 -105 0 -72 0 -73 -44 -120 -57 -61
-68 -107 -32 -141 18 -17 31 -22 51 -17 21 5 24 11 19 31 -5 20 -3 24 8 20 23
-9 91 72 84 99 -3 11 -6 76 -6 144 0 67 -4 122 -8 122 -4 0 -22 -15 -40 -33z"/>
<path d="M1070 623 c0 -54 -3 -123 -6 -153 l-5 -55 20 24 c19 21 21 36 21 152
0 108 -2 129 -15 129 -12 0 -15 -18 -15 -97z"/>
<path d="M2914 639 c-118 -107 -118 -108 -111 -115 4 -4 16 1 28 12 21 19 21
19 8 -9 -14 -30 -27 -34 -43 -12 -9 13 -31 -3 -136 -96 -69 -61 -173 -159
-232 -217 -107 -106 -108 -107 -108 -154 l0 -48 55 0 c54 0 55 0 55 30 0 21
10 39 35 61 35 32 35 33 16 51 -11 10 -27 15 -35 12 -9 -3 -16 -1 -16 5 0 6
10 15 23 20 13 5 29 16 36 25 18 22 58 20 71 -3 15 -29 -3 -59 -61 -104 -39
-31 -49 -45 -49 -68 l0 -29 235 0 235 0 2 258 2 257 6 -260 6 -260 4 320 c3
302 4 311 10 155 4 -91 8 -234 9 -317 1 -103 5 -153 12 -153 8 0 9 87 4 302
-6 269 -5 308 10 351 9 27 14 51 12 53 -3 3 -40 -27 -83 -67z m-279 -329 c-38
-39 -74 -70 -79 -70 -6 0 23 34 64 75 41 41 76 72 79 69 3 -2 -26 -36 -64 -74z"/>
<path d="M0 511 c0 -141 2 -170 15 -175 8 -3 15 -13 15 -22 0 -10 -5 -14 -15
-10 -12 4 -15 -4 -15 -45 l0 -50 65 56 c36 30 74 55 85 55 17 0 20 7 20 45 0
47 -9 56 -30 30 -7 -8 -17 -12 -22 -9 -13 9 22 44 44 44 16 0 18 8 17 63 -1
82 -7 98 -52 146 -33 36 -43 41 -82 41 l-45 0 0 -169z"/>
<path d="M2996 629 c-18 -90 -13 -629 7 -629 6 0 7 100 2 273 -4 164 -3 288 3
313 5 23 6 48 1 55 -5 9 -9 6 -13 -12z"/>
<path d="M3445 640 c-3 -6 1 -7 9 -4 18 7 21 14 7 14 -6 0 -13 -4 -16 -10z"/>
<path d="M4958 614 c-12 -11 23 -60 82 -119 l60 -59 0 -193 c0 -122 4 -193 10
-193 6 0 10 78 10 215 l0 215 -69 70 c-65 67 -80 77 -93 64z"/>
<path d="M687 542 c-37 -37 -67 -71 -67 -76 0 -5 14 -24 30 -43 24 -27 30 -43
30 -78 0 -57 23 -60 63 -11 25 32 27 42 27 125 0 74 -3 91 -15 91 -8 0 -15 5
-15 11 0 6 7 9 15 5 11 -4 15 1 15 19 0 14 -3 25 -8 25 -4 0 -38 -30 -75 -68z
m38 -111 c-8 -8 -64 45 -64 61 -1 13 9 7 33 -20 19 -20 33 -39 31 -41z"/>
<path d="M5075 570 c21 -22 40 -40 42 -40 2 0 3 18 3 40 l0 40 -42 0 -42 0 39
-40z"/>
<path d="M4862 564 c2 -20 9 -39 16 -42 10 -3 12 6 10 34 -2 20 -9 39 -16 42
-10 3 -12 -6 -10 -34z"/>
<path d="M3990 535 c-30 -30 -52 -57 -49 -60 3 -2 29 20 59 50 30 30 52 57 49
60 -3 2 -29 -20 -59 -50z"/>
<path d="M4483 467 c-115 -106 -129 -123 -113 -131 27 -13 74 9 112 53 36 42
65 60 94 61 12 0 29 11 38 25 20 30 47 32 71 5 17 -19 15 -70 -4 -70 -4 0 -18
-9 -31 -20 -13 -11 -33 -20 -46 -20 -14 0 -56 -32 -120 -93 -83 -79 -97 -98
-97 -124 0 -54 15 -63 113 -63 l87 0 42 -45 41 -45 171 0 171 0 -4 115 c-2 93
0 114 10 110 8 -3 15 -5 16 -5 1 0 0 -50 -2 -110 -4 -96 -3 -110 11 -110 31 0
37 37 37 238 l0 200 -25 16 c-13 9 -45 16 -70 16 l-45 0 0 -43 c0 -39 -5 -48
-68 -110 l-68 -67 -85 0 -86 0 -52 -54 c-49 -52 -62 -76 -42 -76 5 0 29 22 54
50 38 43 50 50 82 50 21 0 34 -4 30 -10 -3 -6 -18 -10 -32 -10 -18 0 -44 -17
-80 -51 -44 -42 -56 -49 -68 -39 -8 7 -15 16 -15 20 0 5 25 38 56 74 l56 66
88 0 87 0 61 64 c52 54 62 70 62 99 0 44 -36 72 -74 58 -13 -6 -27 -7 -30 -4
-11 11 -6 40 9 53 8 7 15 21 15 31 0 17 -9 19 -94 19 -74 0 -95 -3 -100 -15
-3 -8 -13 -15 -22 -15 -10 0 -14 5 -10 15 3 8 4 15 3 15 -1 0 -61 -55 -134
-123z m437 -313 c0 -16 -16 -19 -25 -4 -8 13 4 32 16 25 5 -4 9 -13 9 -21z
m-107 -70 c19 -22 26 -41 22 -52 -5 -14 -10 -10 -26 20 -10 20 -23 40 -29 43
-12 7 -13 25 -2 25 4 0 20 -16 35 -36z"/>
<path d="M3605 570 c-3 -5 -1 -10 4 -10 6 0 11 5 11 10 0 6 -2 10 -4 10 -3 0
-8 -4 -11 -10z"/>
<path d="M3543 435 l-73 -67 0 -144 c0 -87 4 -143 9 -139 12 7 26 -32 22 -62
-2 -17 3 -23 17 -23 26 0 34 11 21 27 -9 10 -7 13 10 13 11 0 21 -4 21 -10 0
-5 8 -10 18 -10 14 0 15 -2 2 -10 -11 -7 -1 -10 35 -10 l49 0 -37 38 c-49 50
-57 83 -57 233 0 113 2 129 21 153 12 15 19 37 17 51 -3 25 -6 23 -75 -40z"/>
<path d="M1355 444 c-6 -2 -9 -46 -7 -112 l3 -107 -33 -36 c-18 -20 -70 -71
-115 -113 l-82 -76 131 0 c121 0 130 1 122 18 -5 9 -7 110 -5 225 2 114 2 207
0 206 -2 0 -8 -2 -14 -5z"/>
<path d="M1717 443 c-4 -3 -7 -105 -7 -225 0 -187 2 -218 15 -218 13 0 15 32
15 225 0 205 -3 238 -23 218z"/>
<path d="M1664 399 c-19 -21 -25 -33 -16 -36 7 -3 19 -18 27 -33 14 -27 14
-30 -7 -44 -31 -22 -40 -20 -69 16 l-27 32 -50 -43 c-91 -75 -102 -94 -102
-168 0 -50 5 -72 21 -94 l20 -29 120 0 119 0 0 215 c0 118 -1 215 -3 215 -2 0
-16 -14 -33 -31z m-65 -165 c1 -2 0 -8 -4 -14 -8 -13 -40 12 -57 44 -9 17 -6
16 23 -4 19 -13 36 -25 38 -26z m77 -128 c-3 -12 -9 -37 -14 -56 l-10 -35 -1
31 c-1 18 -7 34 -16 38 -20 7 -19 43 2 55 24 13 46 -6 39 -33z m-106 -12 c0
-8 -7 -14 -15 -14 -15 0 -21 21 -9 33 10 9 24 -2 24 -19z"/>
<path d="M3617 412 c-14 -15 -17 -42 -17 -150 0 -72 4 -141 9 -154 13 -34 84
-108 104 -108 27 0 20 14 -32 66 -49 48 -50 50 -55 124 -3 41 -1 111 3 155 8
75 8 70 10 -71 l1 -150 50 -48 c28 -26 50 -54 50 -62 0 -8 9 -14 20 -14 36 0
22 33 -42 97 l-63 64 -3 134 c-2 74 -7 135 -11 135 -4 0 -15 -8 -24 -18z"/>
<path d="M4537 402 c-12 -8 -40 -32 -63 -54 -46 -44 -94 -57 -145 -39 l-33 11
-111 -108 c-60 -60 -134 -128 -162 -151 -29 -24 -53 -47 -53 -52 0 -5 53 -8
118 -8 64 1 109 3 100 6 -19 5 -24 18 -9 27 14 9 41 -4 41 -20 0 -24 21 -16
66 26 31 28 52 40 74 40 30 0 30 0 14 25 -32 49 -14 84 102 193 89 84 109 98
131 94 16 -3 24 -1 20 5 -11 18 -66 21 -90 5z m-319 -275 c7 -61 -63 -90 -82
-35 -13 36 16 70 53 66 20 -2 27 -9 29 -31z m-101 -19 c-3 -8 -6 -5 -6 6 -1
11 2 17 5 13 3 -3 4 -12 1 -19z"/>
<path d="M4152 105 c4 -23 29 -27 35 -5 4 12 3 12 -5 1 -8 -11 -12 -10 -21 5
-11 18 -12 18 -9 -1z"/>
<path d="M3443 349 c-16 -16 -19 -349 -4 -349 14 0 23 110 19 243 -2 94 -5
116 -15 106z"/>
<path d="M3371 300 c-27 -19 -57 -30 -78 -30 l-33 0 0 -106 c0 -94 2 -105 15
-94 13 11 15 8 15 -14 0 -16 -5 -26 -15 -26 -8 0 -15 -6 -15 -14 0 -10 20 -14
80 -15 l80 -2 0 166 c0 91 -1 165 -2 165 -2 0 -23 -14 -47 -30z"/>
<path d="M3020 305 c0 -12 13 -14 60 -13 42 1 60 5 60 15 0 9 -17 13 -60 13
-46 0 -60 -3 -60 -15z"/>
<path d="M120 284 c-14 -9 -46 -37 -72 -63 -43 -41 -48 -50 -48 -90 l0 -46 90
90 c50 50 89 97 88 105 -4 21 -29 23 -58 4z"/>
<path d="M3030 151 c0 -134 4 -151 32 -151 18 0 18 2 4 22 -12 17 -16 49 -16
135 0 69 -4 113 -10 113 -6 0 -10 -46 -10 -119z"/>
<path d="M3065 162 c0 -91 3 -111 20 -134 31 -42 45 -35 45 20 0 37 4 49 15
49 17 0 20 -13 5 -22 -5 -3 -10 -22 -10 -41 0 -32 2 -34 35 -34 l35 0 0 60 c0
33 4 60 10 60 6 0 10 32 10 75 l0 75 -60 0 -59 0 -4 -107 -3 -108 -2 108 c-2
94 -4 107 -19 107 -16 0 -18 -12 -18 -108z"/>
<path d="M4026 262 c-3 -6 -1 -14 5 -17 15 -10 25 3 12 16 -7 7 -13 7 -17 1z"/>
<path d="M107 152 c-83 -76 -105 -103 -106 -124 -1 -16 2 -28 7 -28 4 0 59 52
122 115 l115 115 237 0 c156 0 238 4 238 10 0 7 -86 10 -254 10 l-253 -1 -106
-97z"/>
<path d="M750 240 c0 -5 5 -10 10 -10 6 0 10 5 10 10 0 6 -4 10 -10 10 -5 0
-10 -4 -10 -10z"/>
<path d="M1948 213 c-16 -4 -18 -18 -18 -109 0 -97 1 -104 20 -104 19 0 20 7
20 110 0 61 -1 109 -2 109 -2 -1 -11 -3 -20 -6z"/>
<path d="M279 193 c-29 -3 -52 -21 -129 -98 l-95 -95 100 0 100 0 98 91 c54
50 101 89 104 85 4 -4 -31 -45 -77 -91 l-85 -85 143 0 142 0 0 56 c0 44 -5 63
-27 92 -15 20 -28 39 -30 41 -4 6 -203 9 -244 4z"/>
<path d="M540 194 c0 -4 14 -22 30 -41 26 -29 30 -41 30 -93 l0 -60 60 0 60 0
0 100 0 100 -90 0 c-49 0 -90 -3 -90 -6z"/>
<path d="M740 100 c0 -82 3 -100 15 -100 12 0 15 18 15 100 0 82 -3 100 -15
100 -12 0 -15 -18 -15 -100z"/>
<path d="M817 193 c-4 -3 -7 -48 -7 -100 l0 -93 124 0 c104 0 125 3 130 16 15
40 5 66 -52 124 l-58 60 -65 0 c-36 0 -69 -3 -72 -7z m70 -68 c16 -33 16 -36
0 -52 -14 -14 -19 -15 -29 -4 -11 10 -10 11 3 6 24 -9 34 13 18 41 -15 29 -33
32 -24 5 3 -11 0 -23 -6 -27 -9 -5 -10 -2 -6 9 3 8 -1 21 -9 28 -12 10 -12 14
-2 20 24 16 38 9 55 -26z"/>
<path d="M2500 176 c0 -7 7 -20 16 -27 15 -12 16 -11 9 10 -5 16 -4 21 4 17 6
-4 11 -2 11 3 0 6 -9 11 -20 11 -11 0 -20 -6 -20 -14z"/>
<path d="M3228 65 c-6 -49 -4 -64 8 -53 3 3 4 28 2 54 l-3 49 -7 -50z"/>
<path d="M3470 30 c0 -17 5 -30 10 -30 6 0 10 13 10 30 0 17 -4 30 -10 30 -5
0 -10 -13 -10 -30z"/>
<path d="M4319 20 l-24 -19 155 0 155 -1 -25 20 c-21 17 -41 20 -131 20 -92 0
-110 -3 -130 -20z"/>
<path d="M3800 15 c0 -8 4 -15 10 -15 5 0 7 7 4 15 -4 8 -8 15 -10 15 -2 0 -4
-7 -4 -15z"/>
</g>
</svg>